<svg xmlns="http://www.w3.org/2000/svg" version="1.1" xmlns:xlink="http://www.w3.org/1999/xlink" width="1000" height="1000"><metadata><rdf:RDF xmlns:rdf="http://www.w3.org/1999/02/22-rdf-syntax-ns#" xmlns:dc="http://purl.org/dc/elements/1.1/"><rdf:Description><dc:creator>RealFaviconGenerator</dc:creator><dc:source>https://realfavicongenerator.net</dc:source></rdf:Description></rdf:RDF></metadata><style>
    #light-icon {
      display: inline;
    }
    #dark-icon {
      display: none;
    }

    @media (prefers-color-scheme: dark) {
      #light-icon {
        display: none;
      }
      #dark-icon {
        display: inline;
      }
    }
  </style><g id="light-icon"><svg xmlns="http://www.w3.org/2000/svg" version="1.1" xmlns:xlink="http://www.w3.org/1999/xlink" width="1000" height="1000"><g><g transform="matrix(0.8695652173913043,0,0,0.8695652173913043,0,0)"><svg xmlns="http://www.w3.org/2000/svg" height="1150" viewBox="0 0 1150 1150" width="1150"><g fill="none" fill-rule="evenodd"><path d="m0 0h1150v1150h-1150z" fill="#fff"></path><path d="m98 1535h477 477c79.05839-129.01738 124.67004-242.01738 136.83495-339 12.16492-96.98262 12.16492-244.652547 0-443.009778v-782.0097779h-613.83495-619.9105856v797.0195559c-12.8215331 203.307931-12.8215331 355.16866 0 455.5822s60.458395 204.21947 142.9105856 311.4178zm12.430213-92.18367c4.332381-4.34486 5.537048-18.67515 5.95334-70.93162.504708-62.78824 3.481378-81.19023 8.355307-51.64369 1.256243 7.6155 2.446174 37.09929 2.641426 65.52362.375768 54.5821 4.185021 55.61571 8.882118 2.41422 3.426118-38.76414 12.628745-53.6703 12.886624-20.87158.232092 29.84555 2.074091 31.85371 21.547703 23.49991l15.962762-6.84399-13.045036-15.26793c-24.498585-28.68273-25.629572-64.06918-3.588214-112.30933 9.696282-21.22965 8.252155-30.98252-8.587398-57.96348-4.752357-7.61551-7.342208-13.84302-5.758089-13.84302s8.233735 9.76394 14.780199 21.69478c10.506762 19.14766 11.902997 25.02817 11.902997 50.0785 0 15.60754-1.849367 31.84632-4.111342 36.07675-10.355717 19.39499-.158412 50.41443 23.916513 72.74045 12.95662 12.00836 14.452323 8.9592 7.257476-14.76958-6.299636-20.7756-7.474832-52.51487-5.260749-141.82634.961523-38.88596 1.867787-45.53799 4.767093-35.06898 1.967255 7.10609 5.857556 19.5648 8.642659 27.68604 8.502666 24.77716 10.094153 44.74433 5.51126 69.08589-3.683997 19.56849-3.41875 27.48301 1.690955 49.98991 8.517403 37.53119 8.745811 37.34662 26.012708-21.2518 2.693002-9.1364 5.389689-21.46591 5.993864-27.4018 1.764635-17.29085 9.147366-15.38605 11.910365 3.07131 2.556694 17.08413.987311 32.93531-5.979129 60.42939-4.896033 19.30639-3.168238 21.4659 11.221457 14.00913 14.349171-7.43462 26.377424-7.33126 50.964425.4356 21.871894 6.90674 27.593142 16.31999 20.026211 32.96115-6.170696 13.57354-5.260749 34.42666 1.620959 37.07344 8.790019 3.38139 11.634065-1.5578 23.271814-40.40315 10.429397-34.81058 9.921005-37.66409-4.509214-25.21275-6.233324 5.37478-7.202215 5.27142-11.972992-1.26618-2.858782-3.91665-5.205489-12.20031-5.216541-18.40937-.040524-23.94288-7.246423-38.00739-32.533384-63.53761-35.255858-35.59316-48.750341-24.75131-52.872735-82.49331-1.499387-20.9934 4.546054-13.86148 11.221457-19.9118 10.480974-9.50554 33.3586-14.49272 29.427774 9.71595-5.135493 31.62853-13.321336 32.80242 9.442086 46.90015 11.394605 7.0544 51.712276 49.90131 52.043836 55.30194.07368 1.17019 1.98199 5.44861 4.243965 9.50923 2.258291 4.06062 5.290221 15.27162 6.734348 24.91743 2.950882 19.71246 7.441675 22.67671 10.845689 7.15407 2.365126-10.79017-1.256243-20.14436-15.505946-40.07461-4.557105-6.37887-8.288995-14.10881-8.288995-17.1838 0-16.93647 12.208768-23.70294 16.169066-8.9592 2.873518 10.70895 15.778562 27.35749 18.83628 24.29726 11.556701-11.58384 24.634893-112.88889 24.458061-189.49062-.187884-83.03596-3.647158-120.615141-10.908318-118.518385-3.404013.981931-17.259529 2.897805-30.790852 4.259958-16.76219 1.683311-27.070015 4.773073-32.341816 9.697496-10.34835 9.660581-24.203865 7.674569-23.813361-3.414611.397872-11.247914-2.464595-10.546535-21.124043 5.1939-17.366365 14.644072-45.766303 28.693812-85.524007 42.300572-20.98405 7.17991-27.998382 11.82748-41.032366 27.18769-14.072871 16.5784-27.600511 45.40879-27.600511 58.81252 0 2.72431-2.57143 7.09132-5.710196 9.70488-16.533782 13.74704-24.933296-33.93939-11.405657-64.75579 15.36227-34.99146 25.228016-52.62193 37.197325-66.457564 7.018015-8.117546 14.853879-18.907718 17.406889-23.983491 14.717571-29.221689 50.736016-68.170406 143.580126-155.270678 40.885007-38.35439 58.181376-52.765895 102.249356-85.191781 7.283264-5.360017 34.795359-20.930644 61.135942-34.603855 55.709413-28.915297 98.845342-61.662342 117.018503-81.160694 20.243567-21.716928 55.09787-103.040047 62.366397-145.525194 7.942699-46.405489-9.61155-175.130795-37.539937-275.302568-3.963981-14.212165-7.246423-31.971835-7.290631-39.465522-.047892-7.493688-1.713059-14.629302-3.69505-15.858562-12.230872-7.5749-51.653331 35.788817-51.653331 56.815439 0 4.256267-1.849367 7.737324-4.115026 7.737324-2.597218 0-3.131398-3.063921-1.455179-8.305811 1.458863-4.570042 3.49243-13.7212 4.520265-20.336317 1.024152-6.618808 3.337702-12.945991 5.139177-14.060815 0-9.428019 32.702848-75.1103725 43.747473-87.716748l11.092517-12.6580561-8.281627-5.6627174c-8.233735-5.6294942-8.241103-5.6922492-.913631-11.4029558 12.823996-9.9891221 30.698752-11.1445527 60.454402-3.8945025 19.451508 4.7398495 38.453568 6.504373 62.443761 5.7956104 30.230885-.8896446 35.30375-.12551 41.179726 6.1905979 4.277121 4.603265 11.785109 7.2906564 20.777747 7.4346238 7.743763.1292015 24.855932 2.7907525 38.026224 5.9248119 13.170292 3.1303679 32.40076 5.714398 42.738058 5.7439298 22.048726.0664464 41.993889 6.1869063 41.993889 12.8906187 0 9.2692852-29.921429 17.2133321-97.625939 25.9141303-71.653755 9.210222-94.174033 19.94133-110.096271 52.47796-13.940247 28.483395-13.627107 30.764725 16.146962 117.340808 34.434326 100.134858 38.51988 122.335368 50.61076 275.014633 4.604998 58.17021 3.264022 92.054227-5.183384 131.047242-4.398694 20.303093-9.044215 43.212366-10.326246 50.909084-4.833405 29.04819-22.019254 57.553734-29.925113 49.635527-1.03152-1.037303-.003684-15.777349 2.287762-32.758118 2.589851-19.225185 2.947199-36.442208.93942-45.637664l-3.223498-14.765886-6.458048 12.92015c-4.115026 8.228291-7.102748 24.987572-8.226367 46.143395-2.409335 45.338654-4.461321 56.132517-11.151461 58.705473-13.73026 5.282496-14.028663 3.750535-6.02702-31.019436 1.911994-8.313194 1.506755-8.719256-4.10029-4.086459-3.426118 2.823976-5.540732 5.825142-4.704465 6.666798.839952.837964-9.873114 13.625222-23.805993 28.416948-13.932879 14.788035-29.508821 33.057128-34.611158 40.591422-10.584126 15.62969-20.829323 25.205368-50.257097 46.98505-20.217779 14.965226-20.921423 16.091125-27.224743 43.448621-3.558742 15.448808-9.652074 40.547124-13.535007 55.774444-13.17766 51.658454-23.964405 121.641374-32.433916 210.413884-1.841999 19.28794-4.457637 40.46591-5.813349 47.06626-2.273026 11.04857-1.72411 11.99728 6.940652 11.99728 11.471969 0 20.939843 8.80785 21.112991 19.64232.07368 4.42608 2.501434 12.19662 5.397057 17.2724 7.522723 13.18963 6.719611 43.27881-1.875155 70.24132-4.070818 12.76511-6.970124 23.5479-6.446996 23.96134 1.598855 1.2551 32.27182 5.62211 32.223928 4.5885-.022104-.53157-2.490383-10.10356-5.481789-21.27026-6.34016-23.66971-7.069592-55.19488-1.720427-74.48651 3.370858-12.16709 2.821942-14.51487-5.304957-22.65825-9.460506-9.4797-11.7409-18.43891-14.566526-57.21412-1.304136-17.89626-.482604-23.78415 3.529269-25.3235 7.375364-2.83874 23.588638 8.71187 23.588638 16.80358 0 11.49524 17.193217 27.27259 24.830144 22.78376 17.053225-10.01496 29.847749-25.54129 35.631626-43.23451 8.440039-25.82554 16.902181-28.97805 16.902181-6.30134 0 9.27297-2.328286 22.09714-5.176017 28.49446-2.84773 6.39733-8.447406 21.7317-12.444544 34.07967l-7.264843 22.44784 7.935331 13.17117c4.361853 7.24267 13.991823 18.73791 21.400342 25.54129 7.404836 6.80338 17.701609 18.79698 22.873942 26.65243 10.414662 15.7995 14.647575 12.6802 12.536644-9.23237-.821531-8.53838-3.846093-13.592-9.965213-16.63008-11.645117-5.78454-15.034395-11.75365-15.104391-26.59706-.029472-6.78861-3.370858-16.56363-7.423255-21.72431-10.812534-13.77288-9.769962-34.50787 2.343022-46.64912 5.341797-5.35264 11.365133-9.73072 13.38028-9.73072 6.638564 0-.114204-30.01536-11.763005-52.27862-6.22964-11.91238-11.328293-24.00933-11.328293-26.87761 0-2.87196-6.02702-11.56907-13.391331-19.32854-16.59641-17.47912-19.138368-26.36449-15.391743-53.81428 2.258291-16.55994 1.661483-24.15329-2.55301-32.31514-16.655354-32.278225 3.057718-29.384111 29.16621 4.28211 24.052821 31.02313 27.596826 44.00603 18.515772 67.84186l-6.513308 17.08044 12.109301 23.65126c6.656983 13.00875 13.148187 23.02002 14.422851 22.24481 1.274663-.77521 2.575114 4.65125 2.891938 12.05635.917315 21.53973 7.165375 33.04974 21.101939 38.88596 16.275901 6.81445 20.162519 14.44473 19.436771 38.14767-.563651 18.26171 5.945973 29.97844 16.90955 30.44356 5.216541.22149 2.762998-14.88032-2.762998-17.00292-8.513719-3.27433-6.57962-21.66524 3.547689-33.72159 4.988133-5.94327 17.362681-16.45289 27.497359-23.35594 17.723713-12.0748 26.056916-25.17584 26.056916-40.97164 0-3.85759 2.593534-12.04158 5.765456-18.18788 8.160055-15.80689.519444-26.18361-26.830555-36.42745-48.68403-18.24325-65.265703-35.2314-64.797835-66.3948.574703-38.01478 26.690563-62.70334 61.305405-57.948725 11.221457 1.543035 18.294733.605401 23.124454-3.056538 16.073282-12.192931 38.858807-2.55819 44.1785 18.682533 2.803522 11.19624-.081048 55.60464-4.280805 65.926-1.948835 4.78783-1.565699 6.25335 1.189931 4.54789 6.299636-3.90189 15.605414-40.19644 15.605414-60.86499 0-26.615505-9.232098-62.821459-22.406074-87.86071-9.103158-17.301928-10.882529-24.201288-8.907906-34.5411 1.355711-7.106083 3.319282-21.225962 4.361853-31.377509 2.309867-22.466296 4.730253-25.51176 14.713887-18.505347 18.320521 12.857396 29.678285 50.418119 23.076562 76.284261-5.102337 19.978244-5.094969 23.211973.0921 43.596279 7.452727 29.277061 5.651252 83.741036-3.669262 110.884426-9.615234 28.0035-12.536644 32.3779-22.66027 33.92462-6.167012.94133-9.062634 7.3608-16.309058 36.16904-11.460917 45.5343-11.376185 48.03343 1.643063 48.03343 7.485883 0 11.615645-2.53604 14.514951-8.90752 2.225135-4.90228 7.467463-9.99651 11.641433-11.32544 6.631196-2.10783 9.81417-10.75325 7.939015-21.56927-.291036-1.67592 1.171511-1.99339 3.245602-.70507 2.077774 1.28464 3.776097-.04799 3.776097-2.96794 0-2.91626 2.490383-7.37187 5.533365-9.90422 3.952929-3.28541 5.279169-10.53915 4.638153-25.36779-.563652-13.07519 1.307819-25.55237 5.058129-33.68837 3.275074-7.10608 6.94802-25.52653 8.160055-40.93842 1.937783-24.61104 1.322555-28.96698-5.065497-35.836807-10.204674-10.974745-9.652074-25.733248 1.016783-27.250443 7.544828-1.074218 8.388463-3.447834 9.386826-26.434628 1.002048-23.119687.291036-25.999034-8.41425-34.087049-9.132631-8.47931-9.268938-9.199147-3.43717-18.121434 3.341386-5.108996 9.02211-9.287742 12.62506-9.287742 8.447407 0 11.022521-7.19837 11.022521-30.790565 0-15.116576-1.539911-20.077914-7.367995-23.725088-4.052398-2.536041-7.367996-7.60074-7.367996-11.255297 0-8.468235 9.029479-20.978633 15.137547-20.978633 8.067955 0 22.630798-42.876442 17.720029-52.164185-8.635291-16.327378 5.864924-33.341371 24.435957-28.667968 17.469517 4.392851 19.598867 34.681376 2.44249 34.69245-4.347117.003691-8.745811 6.688947-14.102343 21.451141l-7.787971 21.44745 10.768325 12.074804c13.41712 15.05013 12.573484 26.497383-2.250923 30.443566-5.905448 1.572567-12.094564 5.009327-13.756047 7.633963-4.350801 6.869829-3.816622 31.167095 1.046255 47.424336 3.698734 12.377504 3.278758 15.12765-3.683997 23.998257-9.729438 12.39227-11.295137 54.748215-2.457227 66.457563 7.618507 10.088792 6.91118 18.778516-2.037251 25.057709-5.62178 3.94618-8.550558 11.66874-10.930421 28.81932-1.786739 12.88323-4.321329 30.27007-5.632832 38.63494-1.514123 9.66058-.887844 16.13911 1.720427 17.75229 7.065907 4.37808 4.862877 25.69633-3.17929 30.72781-11.449865 7.16883-22.085567 31.93861-24.542793 57.16243-1.900943 19.49836-4.162917 25.13893-14.470743 36.03615-6.719612 7.10608-19.716756 27.80416-28.882542 45.99574-15.498578 30.76103-16.24643 33.53332-10.705697 39.66855 4.435533 4.91335 7.191163 5.57043 10.794113 2.57296 2.862466-2.381 10.591493-3.05285 18.90996-1.64271 13.60132 2.30348 14.282859 1.90111 20.390927-11.96775 7.699556-17.49019 7.747448-19.35808.814164-32.67691-7.905859-15.1904-6.936968-21.65048 5.352849-35.67438 11.066729-12.62852 20.261987-41.86129 16.368001-52.0276-1.171511-3.06392-1.105199-7.24267.151044-9.28036 7.397468-11.99359 27.309475 20.08161 20.446188 32.93162-1.985675 3.721-8.388463 10.63144-14.2276 15.35652-10.613597 8.58636-25.854295 45.30543-20.877215 50.29261 3.035615 3.04177 44.462169-41.27804 52.784319-56.46844 3.334018-6.09093.97626-15.50418 2.051987-27.68604 2.088827-23.64756 10.068366-20.17822 15.483843-.76782 5.415476 19.41039 7.810075-8.87799 12.002464-21.38101 6.310688-18.81912 3.212446-28.63474-19.016796-60.27804-7.821127-11.13348-14.724939-38.01477-11.221457-43.69225 1.300451-2.10783 6.244376 2.56926 10.985681 10.3878 27.320527 45.03226 38.184636 108.01246 21.514547 124.71267-4.24765 4.25996-4.623418 8.70818-1.794107 21.35517 1.96357 8.78939 3.989769 22.16728 4.498161 29.7348s2.037251 13.75811 3.40033 13.75811c3.275074 0 17.115853-32.34836 27.641035-64.60075l8.436352-25.8403.23209 15.8438c.37946 25.98057-19.167836 112.1469-29.825641 131.47176-2.136719 3.87235-4.369222 18.76375-4.962345 33.09035-.97626 23.5885-2.074091 26.84807-11.582489 34.47096-5.772824 4.6328-11.634065 8.42763-13.022932 8.4387-1.388867.01108-7.132219 1.7756-12.768736 3.92035-8.204263 3.12667-9.16947 4.5885-4.844457 7.32757 12.823996 8.12862 20.667227 3.69516 37.830973-21.38101 13.818675-20.18865 17.690557-29.4727 20.409347-48.91199 2.858782-20.47291 3.41875-21.71693 3.809253-8.4867.390504 13.41481-4.851825 39.90112-12.982407 65.5753-2.040935 6.44162-1.576751 6.79969 3.429801 2.63941 16.250114-13.51448 39.293523-75.63826 47.147803-127.09737 3.25665-21.36624 6.53541-32.30038 9.68155-32.30038 5.06181 0 49.41625-15.99637 133.06332-47.98913v-691.51539-492.4160452h-595.773435-591.343495v745.7205362c0 195.40846-15.8810072 345.638559 0 449.285319 35.7178319 233.11099 121.504127 261.55369 124.816763 258.23689zm560.924975-1395.964443c-1.295167 1.284604-2.355188 4.5571976-2.355188 7.2744869 0 5.6196799 13.354773 6.7562027 16.680403 1.417877 2.541811-4.0796358-10.805497-12.1833772-14.325215-8.6923639m32.600128 17.5569013-10.955316 5.2959274 12.781202.2698071c18.945392.4008562 40.304606-4.0047079 38.055115-7.8475315-2.983498-5.0993537-27.516102-3.6963569-39.881001 2.281797m-52.955316 555.7745647c0 4.470193 14.623299 14.816647 20.943569 14.816647 2.690629 0 .061396-4.108634-5.83993-9.130298-11.506503-9.791331-15.103639-11.146268-15.103639-5.686349m40.226687 28.083802c2.647344 4.591668 5.592469 7.535336 6.547547 6.538959.955077-.996377-1.209281-4.754573-4.808072-8.353653-6.253397-6.247245-6.33329-6.167686-1.739475 1.814694m276.94697 43.762205c-11.245425 4.630828-2.311764 21.43498 9.217562 17.33081 2.536673-.899081 4.608781-5.729287 4.608781-10.728776 0-8.738761-3.996735-10.649777-13.826343-6.602034m21.56179 78.144996c0 1.20801 3.069655 6.612657 6.825124 12.006221 9.267649 13.313977 16.386169 45.571924 13.338519 60.437473-1.37163 6.693931-12.161268 32.117567-23.977791 56.499433-38.775946 80.01685-39.586452 111.805627-4.045197 158.519067 19.488828 25.61204 26.141578 42.55005 26.174588 66.64377.03668 25.99624 7.3349 9.01021 9.76275-22.72316 2.17847-28.42704 1.82639-30.40714-7.66497-42.94164-33.711196-44.51907-32.596291-111.875821 2.65157-160.307072 29.58532-40.647525 26.27361-96.271427-7.31656-122.888297-9.296989-7.362585-15.748033-9.512622-15.748033-5.245795m-595.213384 161.270967c-3.960427 4.564061-10.309801 13.054396-14.105988 18.864543-11.545334 17.670071 1.631204 9.279275 15.606545-9.942872 12.736076-17.507859 11.638653-24.044274-1.500557-8.921671m81.852773 64.378431c-3.639142 7.604906-7.980964 25.435706-9.645205 39.628096-1.66794 14.19239-5.695405 34.92802-8.949922 46.07918-3.258216 11.15116-8.31751 44.32817-11.246576 73.72669-2.929065 29.39851-7.881108 66.45354-11.006184 82.34533-8.088215 41.13949-7.511278 52.00681 3.136171 58.95923 5.240512 3.42461 9.63411 10.70143 10.824967 17.93402 4.645083 28.19309 12.718505 48.45687 21.99018 55.18811 12.359768 8.97623 13.284347 7.05933 17.518917-36.32514 4.508246-46.19714 4.633988-42.71724-1.871347-51.09628-16.475993-21.22222-28.110891-42.88681-27.042078-50.3627 1.727113-12.08011 11.494362-12.21651 16.949377-.23592 2.562932 5.62166 7.936583 14.36933 11.93816 19.43804l7.281982 9.21583.332848-27.6475c.184916-15.20613 1.653147-62.48337 3.265612-105.06053 1.62356-42.87207 1.512611-78.97603-.251486-80.91504-1.753001-1.92427-3.184249-13.01645-3.184249-24.64315 0-21.59823-4.756032-40.05202-10.318298-40.05202-1.708621 0-6.083728 6.222532-9.722869 13.823754m260.051164 118.093516c-4.440333.865-13.104667 7.32487-19.25 14.3516-9.749667 11.14558-11.176 15.54418-11.176 34.43425 0 28.95349 2.086333 33.30056 15.975667 33.29688 19.294-.00368 72.024333-35.24404 72.024333-48.13434 0-10.26218-17.893333-29.15961-27.61-29.15961-4.744667 0-9.643333-1.65638-10.89-3.68084-2.306333-3.7471-4.774-3.89065-19.074-1.10794m-170.416923 138.03115c.06269 4.63045 2.618206 11.77436 5.675237 15.87744 4.771772 6.40333 6.055061 6.66889 9.045715 1.87013 5.20691-8.34828 4.380885-12.60096-3.816679-19.72243-9.657859-8.38567-11.044402-8.13508-10.904273 1.97486m221.211288 31.21572c-7.000561 4.97927-16.531444 9.05356-21.177704 9.05356-5.405357 0-9.582223 3.01785-11.610149 8.38867-3.615795 9.58178-15.790683 17.06177-33.766978 20.74452-12.317906 2.52657-12.398583 2.67433-13.484055 25.48738-.630747 13.2793.425388 22.94973 2.504654 22.94973 1.976585 0 4.671929 3.42048 5.992098 7.60189 2.834695 9.00923 19.204785 8.71373 16.828482-.3029-4.154864-15.75046-6.0031-36.0628-4.01918-44.23723l2.240619-9.23456 4.356557 8.06731c2.398306 4.43998 4.360223 10.99652 4.360223 14.57952 0 8.22246 18.247663 35.09872 22.171497 32.6571 1.609872-1.00472 6.509165-12.66612 10.887724-25.91587 4.378559-13.25344 12.141883-29.10363 17.257536-35.2243 5.739066-6.87051 10.000277-17.42746 11.137089-27.58178 2.134272-19.07491 2.783355-18.73877-13.678413-7.03304m-276.061961 19.8503c1.033205 3.95995.496379 7.6913-1.194987 8.29599-4.32034 1.54489-8.225191 55.42823-4.419615 60.96995 2.445128 3.55437 5.655048 3.60968 14.523693.25441 9.012044-3.41057 11.839568-7.05712 13.56035-17.4695 4.526244-27.45049 2.647356-42.84046-6.258058-51.23231-10.721795-10.09529-18.737403-10.50087-16.211383-.81854m447.609895 5.57747c-1.520719 1.53783-2.768299 6.1772-2.768299 10.31382 0 5.43786 1.114702 6.399 4.038026 3.47121 2.21833-2.22172 3.46591-6.86479 2.768299-10.31013-.697612-3.44903-2.517307-5.01273-4.038026-3.4749m-131.768299 17.4015c0 18.38429 3.10325 20.42496 19.668643 12.94128 9.814075-4.43544 9.847206-4.37338-11.639949-22.98035l-8.028694-6.95434zm-409.332219 10.7839c-.912766 6.15493-.886793 28.40596.059367 49.44877 1.591775 35.43125 2.211418 37.99825 8.389287 34.72615 10.366947-5.49023 13.257374-38.76211 5.402389-62.16994-4.704828-14.0212-5.250261-20.02556-2.152051-23.71999 3.153868-3.7642 2.719747-5.49023-1.814401-7.21258-8.355893-3.17295-8.051637-3.45205-9.884591 8.92759m222.332219-7.21849c.011143 2.50918 3.391922 9.48236 7.512937 15.5l7.487063 10.94118-2.294363-10.94118c-3.620159-17.23235-4.875982-20.05882-8.93439-20.05882-2.088128 0-3.785883 2.05329-3.771247 4.55882m151.117368 15.708c-10.575143 25.6208-10.787017 34.73318-.814045 34.73318 9.928367 0 11.641949-5.40888 10.29636-32.46058l-1.118846-22.53942zm-182.514134-.08118c-1.171374 7.25025-.583851 18.60024 1.303567 25.21891s3.433338 20.08132 3.433338 29.9133c0 19.20227 6.800581 22.70367 11.467718 5.90583 5.978047-21.52546 3.242393-52.93091-5.559438-63.75273l-8.519086-10.47095zm417.262416 24.1428c-7.97743 13.90591-7.8848 19.13442.68918 40.12565l6.76211 16.54591.54837-34.01103c.30013-18.70422.08152-33.99999-.48538-33.98897-.56691.01471-3.94982 5.11085-7.51428 11.32844m-360.86565 6.38623c0 1.93262 2.665288 5.71381 5.920826 8.40997 5.125273 4.23787 5.741186 3.96752 4.582683-1.99106-1.378471-7.10208-10.503509-12.67341-10.503509-6.41891m-266.115601 17.60612c-3.526587 7.94587-7.479958 21.0273-8.77903 29.06944-2.096485 12.94814-1.561133 14.46993 4.679654 13.28138 5.405936-1.02934 7.738275-6.07604 10.018202-21.66416 4.421337-30.20616 2.029098-38.57042-5.918826-20.68666m-208.844984 6.93604c-3.089709 3.78568-2.723822 6.21558 1.474634 9.75714 3.07123 2.59139 5.588086 7.04182 5.588086 9.88484 0 5.96019 13.205181 7.05308 16.657081 1.37831 1.271363-2.08813-2.62034-8.80696-8.644533-14.92865-8.892154-9.0323-11.730547-10.18153-15.075268-6.09164m324.919259-.14201c-2.656774 3.32152-3.712492 8.76924-2.387601 12.33345 2.261754 6.0816 2.541414 6.07798 5.872869-.0652 1.922665-3.54972 2.995862-9.10249 2.384105-12.33707-1.017265-5.40789-1.492688-5.40426-5.869373.06882m486.764676 8.15362c-1.66248 6.50577-.46519 11.64151 3.65286 15.68421 8.38099 8.23141 11.52291 3.76197 8.49538-12.0832-2.98177-15.60186-8.6479-17.27883-12.14824-3.60101m-552.561179.15491c-1.301252 3.27239-1.547845 6.74245-.546299 7.71246 3.213295 3.10035 14.662793-2.83315 13.266698-6.87423-2.280036-6.59604-10.224121-7.11947-12.720399-.83823m-296.155163 26.06444c.089456 15.45729 4.860446 20.66182 14.380064 15.69353 10.772002-5.62248 9.989261-16.33683-1.565482-21.46866-12.784764-5.68064-12.877947-5.64066-12.814582 5.77513m379.94065-5.34309c-6.75859 6.75042-4.750176 13.57814 5.343487 18.17166 10.182106 4.63402 17.323952-.66252 15.392927-11.41756-1.289807-7.1737-15.636148-11.8482-20.736414-6.7541m-209.947658 4.3553c0 3.025 1.722424 5.5 3.828048 5.5 2.101673 0 2.800914-2.475 1.552552-5.5-1.252313-3.025-2.974737-5.5-3.828048-5.5s-1.552552 2.475-1.552552 5.5m-104.757766 7.80941c-3.942697 3.01886-10.683676 5.49156-14.984464 5.49156s-10.87195 2.26321-14.604222 5.02769c-5.962037 4.41794-3.23759 5.30826 22.3641 7.29465 21.910025 1.69834 30.404543 1.01002 34.184807-2.77571 4.230647-4.24212 3.850406-5.413-2.429115-7.43306-4.101438-1.32051-8.38746-4.85935-9.524493-7.86699-2.576781-6.80085-5.866053-6.74474-15.006613.26186m47.461844 21.95355c-8.745032 13.03114-7.671147 16.73704 4.862523 16.73704 10.547357 0 10.862764-.47653 7.626088-11.49526-4.547116-15.47242-5.384446-15.82432-12.488611-5.24178m-102.200096-2.87672c-1.377753 1.34608-2.503982 6.31112-2.503982 11.03343 0 6.6458 2.064753 8.58033 9.16375 8.58033 11.765339 0 14.862468-5.10112 8.829635-14.56045-4.831522-7.57996-10.894388-9.55862-15.489403-5.05331m375.648762 461.79622c1.609048 3.53511 2.88972 11.81315 2.849585 18.39729-.102162 15.70913 5.987412 15.24147 20.625741-1.58712 13.05847-15.00579 12.620634-15.64653-14.15306-20.85713-10.741586-2.09161-11.887258-1.59448-9.322266 4.04696m-284-1c1.609048 3.53511 2.88972 11.81315 2.849585 18.39729-.102162 15.70913 5.987412 15.24147 20.625741-1.58712 13.05847-15.00579 12.620634-15.64653-14.15306-20.85713-10.741586-2.09161-11.887258-1.59448-9.322266 4.04696m577-1c1.609048 3.53511 2.88972 11.81315 2.849585 18.39729-.102162 15.70913 5.987412 15.24147 20.625741-1.58712 13.05847-15.00579 12.620634-15.64653-14.15306-20.85713-10.741586-2.09161-11.887258-1.59448-9.322266 4.04696" fill="#000"></path></g></svg></g></g></svg></g><g id="dark-icon"><svg xmlns="http://www.w3.org/2000/svg" version="1.1" xmlns:xlink="http://www.w3.org/1999/xlink" width="1000" height="1000"><g><g transform="matrix(0.8695652173913043,0,0,0.8695652173913043,0,0)"><svg xmlns="http://www.w3.org/2000/svg" height="1150" viewBox="0 0 1150 1150" width="1150"><g fill="none" fill-rule="evenodd"><path d="m0 0h1150v1150h-1150z" fill="#000"></path><path d="m98 1535h477 477c79.05839-129.01738 124.67004-242.01738 136.83495-339 12.16492-96.98262 12.16492-244.652547 0-443.009778v-782.0097779h-613.83495-619.9105856v797.0195559c-12.8215331 203.307931-12.8215331 355.16866 0 455.5822s60.458395 204.21947 142.9105856 311.4178zm12.430213-92.18367c4.332381-4.34486 5.537048-18.67515 5.95334-70.93162.504708-62.78824 3.481378-81.19023 8.355307-51.64369 1.256243 7.6155 2.446174 37.09929 2.641426 65.52362.375768 54.5821 4.185021 55.61571 8.882118 2.41422 3.426118-38.76414 12.628745-53.6703 12.886624-20.87158.232092 29.84555 2.074091 31.85371 21.547703 23.49991l15.962762-6.84399-13.045036-15.26793c-24.498585-28.68273-25.629572-64.06918-3.588214-112.30933 9.696282-21.22965 8.252155-30.98252-8.587398-57.96348-4.752357-7.61551-7.342208-13.84302-5.758089-13.84302s8.233735 9.76394 14.780199 21.69478c10.506762 19.14766 11.902997 25.02817 11.902997 50.0785 0 15.60754-1.849367 31.84632-4.111342 36.07675-10.355717 19.39499-.158412 50.41443 23.916513 72.74045 12.95662 12.00836 14.452323 8.9592 7.257476-14.76958-6.299636-20.7756-7.474832-52.51487-5.260749-141.82634.961523-38.88596 1.867787-45.53799 4.767093-35.06898 1.967255 7.10609 5.857556 19.5648 8.642659 27.68604 8.502666 24.77716 10.094153 44.74433 5.51126 69.08589-3.683997 19.56849-3.41875 27.48301 1.690955 49.98991 8.517403 37.53119 8.745811 37.34662 26.012708-21.2518 2.693002-9.1364 5.389689-21.46591 5.993864-27.4018 1.764635-17.29085 9.147366-15.38605 11.910365 3.07131 2.556694 17.08413.987311 32.93531-5.979129 60.42939-4.896033 19.30639-3.168238 21.4659 11.221457 14.00913 14.349171-7.43462 26.377424-7.33126 50.964425.4356 21.871894 6.90674 27.593142 16.31999 20.026211 32.96115-6.170696 13.57354-5.260749 34.42666 1.620959 37.07344 8.790019 3.38139 11.634065-1.5578 23.271814-40.40315 10.429397-34.81058 9.921005-37.66409-4.509214-25.21275-6.233324 5.37478-7.202215 5.27142-11.972992-1.26618-2.858782-3.91665-5.205489-12.20031-5.216541-18.40937-.040524-23.94288-7.246423-38.00739-32.533384-63.53761-35.255858-35.59316-48.750341-24.75131-52.872735-82.49331-1.499387-20.9934 4.546054-13.86148 11.221457-19.9118 10.480974-9.50554 33.3586-14.49272 29.427774 9.71595-5.135493 31.62853-13.321336 32.80242 9.442086 46.90015 11.394605 7.0544 51.712276 49.90131 52.043836 55.30194.07368 1.17019 1.98199 5.44861 4.243965 9.50923 2.258291 4.06062 5.290221 15.27162 6.734348 24.91743 2.950882 19.71246 7.441675 22.67671 10.845689 7.15407 2.365126-10.79017-1.256243-20.14436-15.505946-40.07461-4.557105-6.37887-8.288995-14.10881-8.288995-17.1838 0-16.93647 12.208768-23.70294 16.169066-8.9592 2.873518 10.70895 15.778562 27.35749 18.83628 24.29726 11.556701-11.58384 24.634893-112.88889 24.458061-189.49062-.187884-83.03596-3.647158-120.615141-10.908318-118.518385-3.404013.981931-17.259529 2.897805-30.790852 4.259958-16.76219 1.683311-27.070015 4.773073-32.341816 9.697496-10.34835 9.660581-24.203865 7.674569-23.813361-3.414611.397872-11.247914-2.464595-10.546535-21.124043 5.1939-17.366365 14.644072-45.766303 28.693812-85.524007 42.300572-20.98405 7.17991-27.998382 11.82748-41.032366 27.18769-14.072871 16.5784-27.600511 45.40879-27.600511 58.81252 0 2.72431-2.57143 7.09132-5.710196 9.70488-16.533782 13.74704-24.933296-33.93939-11.405657-64.75579 15.36227-34.99146 25.228016-52.62193 37.197325-66.457564 7.018015-8.117546 14.853879-18.907718 17.406889-23.983491 14.717571-29.221689 50.736016-68.170406 143.580126-155.270678 40.885007-38.35439 58.181376-52.765895 102.249356-85.191781 7.283264-5.360017 34.795359-20.930644 61.135942-34.603855 55.709413-28.915297 98.845342-61.662342 117.018503-81.160694 20.243567-21.716928 55.09787-103.040047 62.366397-145.525194 7.942699-46.405489-9.61155-175.130795-37.539937-275.302568-3.963981-14.212165-7.246423-31.971835-7.290631-39.465522-.047892-7.493688-1.713059-14.629302-3.69505-15.858562-12.230872-7.5749-51.653331 35.788817-51.653331 56.815439 0 4.256267-1.849367 7.737324-4.115026 7.737324-2.597218 0-3.131398-3.063921-1.455179-8.305811 1.458863-4.570042 3.49243-13.7212 4.520265-20.336317 1.024152-6.618808 3.337702-12.945991 5.139177-14.060815 0-9.428019 32.702848-75.1103725 43.747473-87.716748l11.092517-12.6580561-8.281627-5.6627174c-8.233735-5.6294942-8.241103-5.6922492-.913631-11.4029558 12.823996-9.9891221 30.698752-11.1445527 60.454402-3.8945025 19.451508 4.7398495 38.453568 6.504373 62.443761 5.7956104 30.230885-.8896446 35.30375-.12551 41.179726 6.1905979 4.277121 4.603265 11.785109 7.2906564 20.777747 7.4346238 7.743763.1292015 24.855932 2.7907525 38.026224 5.9248119 13.170292 3.1303679 32.40076 5.714398 42.738058 5.7439298 22.048726.0664464 41.993889 6.1869063 41.993889 12.8906187 0 9.2692852-29.921429 17.2133321-97.625939 25.9141303-71.653755 9.210222-94.174033 19.94133-110.096271 52.47796-13.940247 28.483395-13.627107 30.764725 16.146962 117.340808 34.434326 100.134858 38.51988 122.335368 50.61076 275.014633 4.604998 58.17021 3.264022 92.054227-5.183384 131.047242-4.398694 20.303093-9.044215 43.212366-10.326246 50.909084-4.833405 29.04819-22.019254 57.553734-29.925113 49.635527-1.03152-1.037303-.003684-15.777349 2.287762-32.758118 2.589851-19.225185 2.947199-36.442208.93942-45.637664l-3.223498-14.765886-6.458048 12.92015c-4.115026 8.228291-7.102748 24.987572-8.226367 46.143395-2.409335 45.338654-4.461321 56.132517-11.151461 58.705473-13.73026 5.282496-14.028663 3.750535-6.02702-31.019436 1.911994-8.313194 1.506755-8.719256-4.10029-4.086459-3.426118 2.823976-5.540732 5.825142-4.704465 6.666798.839952.837964-9.873114 13.625222-23.805993 28.416948-13.932879 14.788035-29.508821 33.057128-34.611158 40.591422-10.584126 15.62969-20.829323 25.205368-50.257097 46.98505-20.217779 14.965226-20.921423 16.091125-27.224743 43.448621-3.558742 15.448808-9.652074 40.547124-13.535007 55.774444-13.17766 51.658454-23.964405 121.641374-32.433916 210.413884-1.841999 19.28794-4.457637 40.46591-5.813349 47.06626-2.273026 11.04857-1.72411 11.99728 6.940652 11.99728 11.471969 0 20.939843 8.80785 21.112991 19.64232.07368 4.42608 2.501434 12.19662 5.397057 17.2724 7.522723 13.18963 6.719611 43.27881-1.875155 70.24132-4.070818 12.76511-6.970124 23.5479-6.446996 23.96134 1.598855 1.2551 32.27182 5.62211 32.223928 4.5885-.022104-.53157-2.490383-10.10356-5.481789-21.27026-6.34016-23.66971-7.069592-55.19488-1.720427-74.48651 3.370858-12.16709 2.821942-14.51487-5.304957-22.65825-9.460506-9.4797-11.7409-18.43891-14.566526-57.21412-1.304136-17.89626-.482604-23.78415 3.529269-25.3235 7.375364-2.83874 23.588638 8.71187 23.588638 16.80358 0 11.49524 17.193217 27.27259 24.830144 22.78376 17.053225-10.01496 29.847749-25.54129 35.631626-43.23451 8.440039-25.82554 16.902181-28.97805 16.902181-6.30134 0 9.27297-2.328286 22.09714-5.176017 28.49446-2.84773 6.39733-8.447406 21.7317-12.444544 34.07967l-7.264843 22.44784 7.935331 13.17117c4.361853 7.24267 13.991823 18.73791 21.400342 25.54129 7.404836 6.80338 17.701609 18.79698 22.873942 26.65243 10.414662 15.7995 14.647575 12.6802 12.536644-9.23237-.821531-8.53838-3.846093-13.592-9.965213-16.63008-11.645117-5.78454-15.034395-11.75365-15.104391-26.59706-.029472-6.78861-3.370858-16.56363-7.423255-21.72431-10.812534-13.77288-9.769962-34.50787 2.343022-46.64912 5.341797-5.35264 11.365133-9.73072 13.38028-9.73072 6.638564 0-.114204-30.01536-11.763005-52.27862-6.22964-11.91238-11.328293-24.00933-11.328293-26.87761 0-2.87196-6.02702-11.56907-13.391331-19.32854-16.59641-17.47912-19.138368-26.36449-15.391743-53.81428 2.258291-16.55994 1.661483-24.15329-2.55301-32.31514-16.655354-32.278225 3.057718-29.384111 29.16621 4.28211 24.052821 31.02313 27.596826 44.00603 18.515772 67.84186l-6.513308 17.08044 12.109301 23.65126c6.656983 13.00875 13.148187 23.02002 14.422851 22.24481 1.274663-.77521 2.575114 4.65125 2.891938 12.05635.917315 21.53973 7.165375 33.04974 21.101939 38.88596 16.275901 6.81445 20.162519 14.44473 19.436771 38.14767-.563651 18.26171 5.945973 29.97844 16.90955 30.44356 5.216541.22149 2.762998-14.88032-2.762998-17.00292-8.513719-3.27433-6.57962-21.66524 3.547689-33.72159 4.988133-5.94327 17.362681-16.45289 27.497359-23.35594 17.723713-12.0748 26.056916-25.17584 26.056916-40.97164 0-3.85759 2.593534-12.04158 5.765456-18.18788 8.160055-15.80689.519444-26.18361-26.830555-36.42745-48.68403-18.24325-65.265703-35.2314-64.797835-66.3948.574703-38.01478 26.690563-62.70334 61.305405-57.948725 11.221457 1.543035 18.294733.605401 23.124454-3.056538 16.073282-12.192931 38.858807-2.55819 44.1785 18.682533 2.803522 11.19624-.081048 55.60464-4.280805 65.926-1.948835 4.78783-1.565699 6.25335 1.189931 4.54789 6.299636-3.90189 15.605414-40.19644 15.605414-60.86499 0-26.615505-9.232098-62.821459-22.406074-87.86071-9.103158-17.301928-10.882529-24.201288-8.907906-34.5411 1.355711-7.106083 3.319282-21.225962 4.361853-31.377509 2.309867-22.466296 4.730253-25.51176 14.713887-18.505347 18.320521 12.857396 29.678285 50.418119 23.076562 76.284261-5.102337 19.978244-5.094969 23.211973.0921 43.596279 7.452727 29.277061 5.651252 83.741036-3.669262 110.884426-9.615234 28.0035-12.536644 32.3779-22.66027 33.92462-6.167012.94133-9.062634 7.3608-16.309058 36.16904-11.460917 45.5343-11.376185 48.03343 1.643063 48.03343 7.485883 0 11.615645-2.53604 14.514951-8.90752 2.225135-4.90228 7.467463-9.99651 11.641433-11.32544 6.631196-2.10783 9.81417-10.75325 7.939015-21.56927-.291036-1.67592 1.171511-1.99339 3.245602-.70507 2.077774 1.28464 3.776097-.04799 3.776097-2.96794 0-2.91626 2.490383-7.37187 5.533365-9.90422 3.952929-3.28541 5.279169-10.53915 4.638153-25.36779-.563652-13.07519 1.307819-25.55237 5.058129-33.68837 3.275074-7.10608 6.94802-25.52653 8.160055-40.93842 1.937783-24.61104 1.322555-28.96698-5.065497-35.836807-10.204674-10.974745-9.652074-25.733248 1.016783-27.250443 7.544828-1.074218 8.388463-3.447834 9.386826-26.434628 1.002048-23.119687.291036-25.999034-8.41425-34.087049-9.132631-8.47931-9.268938-9.199147-3.43717-18.121434 3.341386-5.108996 9.02211-9.287742 12.62506-9.287742 8.447407 0 11.022521-7.19837 11.022521-30.790565 0-15.116576-1.539911-20.077914-7.367995-23.725088-4.052398-2.536041-7.367996-7.60074-7.367996-11.255297 0-8.468235 9.029479-20.978633 15.137547-20.978633 8.067955 0 22.630798-42.876442 17.720029-52.164185-8.635291-16.327378 5.864924-33.341371 24.435957-28.667968 17.469517 4.392851 19.598867 34.681376 2.44249 34.69245-4.347117.003691-8.745811 6.688947-14.102343 21.451141l-7.787971 21.44745 10.768325 12.074804c13.41712 15.05013 12.573484 26.497383-2.250923 30.443566-5.905448 1.572567-12.094564 5.009327-13.756047 7.633963-4.350801 6.869829-3.816622 31.167095 1.046255 47.424336 3.698734 12.377504 3.278758 15.12765-3.683997 23.998257-9.729438 12.39227-11.295137 54.748215-2.457227 66.457563 7.618507 10.088792 6.91118 18.778516-2.037251 25.057709-5.62178 3.94618-8.550558 11.66874-10.930421 28.81932-1.786739 12.88323-4.321329 30.27007-5.632832 38.63494-1.514123 9.66058-.887844 16.13911 1.720427 17.75229 7.065907 4.37808 4.862877 25.69633-3.17929 30.72781-11.449865 7.16883-22.085567 31.93861-24.542793 57.16243-1.900943 19.49836-4.162917 25.13893-14.470743 36.03615-6.719612 7.10608-19.716756 27.80416-28.882542 45.99574-15.498578 30.76103-16.24643 33.53332-10.705697 39.66855 4.435533 4.91335 7.191163 5.57043 10.794113 2.57296 2.862466-2.381 10.591493-3.05285 18.90996-1.64271 13.60132 2.30348 14.282859 1.90111 20.390927-11.96775 7.699556-17.49019 7.747448-19.35808.814164-32.67691-7.905859-15.1904-6.936968-21.65048 5.352849-35.67438 11.066729-12.62852 20.261987-41.86129 16.368001-52.0276-1.171511-3.06392-1.105199-7.24267.151044-9.28036 7.397468-11.99359 27.309475 20.08161 20.446188 32.93162-1.985675 3.721-8.388463 10.63144-14.2276 15.35652-10.613597 8.58636-25.854295 45.30543-20.877215 50.29261 3.035615 3.04177 44.462169-41.27804 52.784319-56.46844 3.334018-6.09093.97626-15.50418 2.051987-27.68604 2.088827-23.64756 10.068366-20.17822 15.483843-.76782 5.415476 19.41039 7.810075-8.87799 12.002464-21.38101 6.310688-18.81912 3.212446-28.63474-19.016796-60.27804-7.821127-11.13348-14.724939-38.01477-11.221457-43.69225 1.300451-2.10783 6.244376 2.56926 10.985681 10.3878 27.320527 45.03226 38.184636 108.01246 21.514547 124.71267-4.24765 4.25996-4.623418 8.70818-1.794107 21.35517 1.96357 8.78939 3.989769 22.16728 4.498161 29.7348s2.037251 13.75811 3.40033 13.75811c3.275074 0 17.115853-32.34836 27.641035-64.60075l8.436352-25.8403.23209 15.8438c.37946 25.98057-19.167836 112.1469-29.825641 131.47176-2.136719 3.87235-4.369222 18.76375-4.962345 33.09035-.97626 23.5885-2.074091 26.84807-11.582489 34.47096-5.772824 4.6328-11.634065 8.42763-13.022932 8.4387-1.388867.01108-7.132219 1.7756-12.768736 3.92035-8.204263 3.12667-9.16947 4.5885-4.844457 7.32757 12.823996 8.12862 20.667227 3.69516 37.830973-21.38101 13.818675-20.18865 17.690557-29.4727 20.409347-48.91199 2.858782-20.47291 3.41875-21.71693 3.809253-8.4867.390504 13.41481-4.851825 39.90112-12.982407 65.5753-2.040935 6.44162-1.576751 6.79969 3.429801 2.63941 16.250114-13.51448 39.293523-75.63826 47.147803-127.09737 3.25665-21.36624 6.53541-32.30038 9.68155-32.30038 5.06181 0 49.41625-15.99637 133.06332-47.98913v-691.51539-492.4160452h-595.773435-591.343495v745.7205362c0 195.40846-15.8810072 345.638559 0 449.285319 35.7178319 233.11099 121.504127 261.55369 124.816763 258.23689zm560.924975-1395.964443c-1.295167 1.284604-2.355188 4.5571976-2.355188 7.2744869 0 5.6196799 13.354773 6.7562027 16.680403 1.417877 2.541811-4.0796358-10.805497-12.1833772-14.325215-8.6923639m32.600128 17.5569013-10.955316 5.2959274 12.781202.2698071c18.945392.4008562 40.304606-4.0047079 38.055115-7.8475315-2.983498-5.0993537-27.516102-3.6963569-39.881001 2.281797m-52.955316 555.7745647c0 4.470193 14.623299 14.816647 20.943569 14.816647 2.690629 0 .061396-4.108634-5.83993-9.130298-11.506503-9.791331-15.103639-11.146268-15.103639-5.686349m40.226687 28.083802c2.647344 4.591668 5.592469 7.535336 6.547547 6.538959.955077-.996377-1.209281-4.754573-4.808072-8.353653-6.253397-6.247245-6.33329-6.167686-1.739475 1.814694m276.94697 43.762205c-11.245425 4.630828-2.311764 21.43498 9.217562 17.33081 2.536673-.899081 4.608781-5.729287 4.608781-10.728776 0-8.738761-3.996735-10.649777-13.826343-6.602034m21.56179 78.144996c0 1.20801 3.069655 6.612657 6.825124 12.006221 9.267649 13.313977 16.386169 45.571924 13.338519 60.437473-1.37163 6.693931-12.161268 32.117567-23.977791 56.499433-38.775946 80.01685-39.586452 111.805627-4.045197 158.519067 19.488828 25.61204 26.141578 42.55005 26.174588 66.64377.03668 25.99624 7.3349 9.01021 9.76275-22.72316 2.17847-28.42704 1.82639-30.40714-7.66497-42.94164-33.711196-44.51907-32.596291-111.875821 2.65157-160.307072 29.58532-40.647525 26.27361-96.271427-7.31656-122.888297-9.296989-7.362585-15.748033-9.512622-15.748033-5.245795m-595.213384 161.270967c-3.960427 4.564061-10.309801 13.054396-14.105988 18.864543-11.545334 17.670071 1.631204 9.279275 15.606545-9.942872 12.736076-17.507859 11.638653-24.044274-1.500557-8.921671m81.852773 64.378431c-3.639142 7.604906-7.980964 25.435706-9.645205 39.628096-1.66794 14.19239-5.695405 34.92802-8.949922 46.07918-3.258216 11.15116-8.31751 44.32817-11.246576 73.72669-2.929065 29.39851-7.881108 66.45354-11.006184 82.34533-8.088215 41.13949-7.511278 52.00681 3.136171 58.95923 5.240512 3.42461 9.63411 10.70143 10.824967 17.93402 4.645083 28.19309 12.718505 48.45687 21.99018 55.18811 12.359768 8.97623 13.284347 7.05933 17.518917-36.32514 4.508246-46.19714 4.633988-42.71724-1.871347-51.09628-16.475993-21.22222-28.110891-42.88681-27.042078-50.3627 1.727113-12.08011 11.494362-12.21651 16.949377-.23592 2.562932 5.62166 7.936583 14.36933 11.93816 19.43804l7.281982 9.21583.332848-27.6475c.184916-15.20613 1.653147-62.48337 3.265612-105.06053 1.62356-42.87207 1.512611-78.97603-.251486-80.91504-1.753001-1.92427-3.184249-13.01645-3.184249-24.64315 0-21.59823-4.756032-40.05202-10.318298-40.05202-1.708621 0-6.083728 6.222532-9.722869 13.823754m260.051164 118.093516c-4.440333.865-13.104667 7.32487-19.25 14.3516-9.749667 11.14558-11.176 15.54418-11.176 34.43425 0 28.95349 2.086333 33.30056 15.975667 33.29688 19.294-.00368 72.024333-35.24404 72.024333-48.13434 0-10.26218-17.893333-29.15961-27.61-29.15961-4.744667 0-9.643333-1.65638-10.89-3.68084-2.306333-3.7471-4.774-3.89065-19.074-1.10794m-170.416923 138.03115c.06269 4.63045 2.618206 11.77436 5.675237 15.87744 4.771772 6.40333 6.055061 6.66889 9.045715 1.87013 5.20691-8.34828 4.380885-12.60096-3.816679-19.72243-9.657859-8.38567-11.044402-8.13508-10.904273 1.97486m221.211288 31.21572c-7.000561 4.97927-16.531444 9.05356-21.177704 9.05356-5.405357 0-9.582223 3.01785-11.610149 8.38867-3.615795 9.58178-15.790683 17.06177-33.766978 20.74452-12.317906 2.52657-12.398583 2.67433-13.484055 25.48738-.630747 13.2793.425388 22.94973 2.504654 22.94973 1.976585 0 4.671929 3.42048 5.992098 7.60189 2.834695 9.00923 19.204785 8.71373 16.828482-.3029-4.154864-15.75046-6.0031-36.0628-4.01918-44.23723l2.240619-9.23456 4.356557 8.06731c2.398306 4.43998 4.360223 10.99652 4.360223 14.57952 0 8.22246 18.247663 35.09872 22.171497 32.6571 1.609872-1.00472 6.509165-12.66612 10.887724-25.91587 4.378559-13.25344 12.141883-29.10363 17.257536-35.2243 5.739066-6.87051 10.000277-17.42746 11.137089-27.58178 2.134272-19.07491 2.783355-18.73877-13.678413-7.03304m-276.061961 19.8503c1.033205 3.95995.496379 7.6913-1.194987 8.29599-4.32034 1.54489-8.225191 55.42823-4.419615 60.96995 2.445128 3.55437 5.655048 3.60968 14.523693.25441 9.012044-3.41057 11.839568-7.05712 13.56035-17.4695 4.526244-27.45049 2.647356-42.84046-6.258058-51.23231-10.721795-10.09529-18.737403-10.50087-16.211383-.81854m447.609895 5.57747c-1.520719 1.53783-2.768299 6.1772-2.768299 10.31382 0 5.43786 1.114702 6.399 4.038026 3.47121 2.21833-2.22172 3.46591-6.86479 2.768299-10.31013-.697612-3.44903-2.517307-5.01273-4.038026-3.4749m-131.768299 17.4015c0 18.38429 3.10325 20.42496 19.668643 12.94128 9.814075-4.43544 9.847206-4.37338-11.639949-22.98035l-8.028694-6.95434zm-409.332219 10.7839c-.912766 6.15493-.886793 28.40596.059367 49.44877 1.591775 35.43125 2.211418 37.99825 8.389287 34.72615 10.366947-5.49023 13.257374-38.76211 5.402389-62.16994-4.704828-14.0212-5.250261-20.02556-2.152051-23.71999 3.153868-3.7642 2.719747-5.49023-1.814401-7.21258-8.355893-3.17295-8.051637-3.45205-9.884591 8.92759m222.332219-7.21849c.011143 2.50918 3.391922 9.48236 7.512937 15.5l7.487063 10.94118-2.294363-10.94118c-3.620159-17.23235-4.875982-20.05882-8.93439-20.05882-2.088128 0-3.785883 2.05329-3.771247 4.55882m151.117368 15.708c-10.575143 25.6208-10.787017 34.73318-.814045 34.73318 9.928367 0 11.641949-5.40888 10.29636-32.46058l-1.118846-22.53942zm-182.514134-.08118c-1.171374 7.25025-.583851 18.60024 1.303567 25.21891s3.433338 20.08132 3.433338 29.9133c0 19.20227 6.800581 22.70367 11.467718 5.90583 5.978047-21.52546 3.242393-52.93091-5.559438-63.75273l-8.519086-10.47095zm417.262416 24.1428c-7.97743 13.90591-7.8848 19.13442.68918 40.12565l6.76211 16.54591.54837-34.01103c.30013-18.70422.08152-33.99999-.48538-33.98897-.56691.01471-3.94982 5.11085-7.51428 11.32844m-360.86565 6.38623c0 1.93262 2.665288 5.71381 5.920826 8.40997 5.125273 4.23787 5.741186 3.96752 4.582683-1.99106-1.378471-7.10208-10.503509-12.67341-10.503509-6.41891m-266.115601 17.60612c-3.526587 7.94587-7.479958 21.0273-8.77903 29.06944-2.096485 12.94814-1.561133 14.46993 4.679654 13.28138 5.405936-1.02934 7.738275-6.07604 10.018202-21.66416 4.421337-30.20616 2.029098-38.57042-5.918826-20.68666m-208.844984 6.93604c-3.089709 3.78568-2.723822 6.21558 1.474634 9.75714 3.07123 2.59139 5.588086 7.04182 5.588086 9.88484 0 5.96019 13.205181 7.05308 16.657081 1.37831 1.271363-2.08813-2.62034-8.80696-8.644533-14.92865-8.892154-9.0323-11.730547-10.18153-15.075268-6.09164m324.919259-.14201c-2.656774 3.32152-3.712492 8.76924-2.387601 12.33345 2.261754 6.0816 2.541414 6.07798 5.872869-.0652 1.922665-3.54972 2.995862-9.10249 2.384105-12.33707-1.017265-5.40789-1.492688-5.40426-5.869373.06882m486.764676 8.15362c-1.66248 6.50577-.46519 11.64151 3.65286 15.68421 8.38099 8.23141 11.52291 3.76197 8.49538-12.0832-2.98177-15.60186-8.6479-17.27883-12.14824-3.60101m-552.561179.15491c-1.301252 3.27239-1.547845 6.74245-.546299 7.71246 3.213295 3.10035 14.662793-2.83315 13.266698-6.87423-2.280036-6.59604-10.224121-7.11947-12.720399-.83823m-296.155163 26.06444c.089456 15.45729 4.860446 20.66182 14.380064 15.69353 10.772002-5.62248 9.989261-16.33683-1.565482-21.46866-12.784764-5.68064-12.877947-5.64066-12.814582 5.77513m379.94065-5.34309c-6.75859 6.75042-4.750176 13.57814 5.343487 18.17166 10.182106 4.63402 17.323952-.66252 15.392927-11.41756-1.289807-7.1737-15.636148-11.8482-20.736414-6.7541m-209.947658 4.3553c0 3.025 1.722424 5.5 3.828048 5.5 2.101673 0 2.800914-2.475 1.552552-5.5-1.252313-3.025-2.974737-5.5-3.828048-5.5s-1.552552 2.475-1.552552 5.5m-104.757766 7.80941c-3.942697 3.01886-10.683676 5.49156-14.984464 5.49156s-10.87195 2.26321-14.604222 5.02769c-5.962037 4.41794-3.23759 5.30826 22.3641 7.29465 21.910025 1.69834 30.404543 1.01002 34.184807-2.77571 4.230647-4.24212 3.850406-5.413-2.429115-7.43306-4.101438-1.32051-8.38746-4.85935-9.524493-7.86699-2.576781-6.80085-5.866053-6.74474-15.006613.26186m47.461844 21.95355c-8.745032 13.03114-7.671147 16.73704 4.862523 16.73704 10.547357 0 10.862764-.47653 7.626088-11.49526-4.547116-15.47242-5.384446-15.82432-12.488611-5.24178m-102.200096-2.87672c-1.377753 1.34608-2.503982 6.31112-2.503982 11.03343 0 6.6458 2.064753 8.58033 9.16375 8.58033 11.765339 0 14.862468-5.10112 8.829635-14.56045-4.831522-7.57996-10.894388-9.55862-15.489403-5.05331m375.648762 461.79622c1.609048 3.53511 2.88972 11.81315 2.849585 18.39729-.102162 15.70913 5.987412 15.24147 20.625741-1.58712 13.05847-15.00579 12.620634-15.64653-14.15306-20.85713-10.741586-2.09161-11.887258-1.59448-9.322266 4.04696m-284-1c1.609048 3.53511 2.88972 11.81315 2.849585 18.39729-.102162 15.70913 5.987412 15.24147 20.625741-1.58712 13.05847-15.00579 12.620634-15.64653-14.15306-20.85713-10.741586-2.09161-11.887258-1.59448-9.322266 4.04696m577-1c1.609048 3.53511 2.88972 11.81315 2.849585 18.39729-.102162 15.70913 5.987412 15.24147 20.625741-1.58712 13.05847-15.00579 12.620634-15.64653-14.15306-20.85713-10.741586-2.09161-11.887258-1.59448-9.322266 4.04696" fill="#fff"></path></g></svg></g></g></svg></g></svg>