<svg height="492" viewBox="0 0 1150 492" width="1150" xmlns="http://www.w3.org/2000/svg"><g fill="#FFF" fill-rule="evenodd"><path d="m344.041664 8.25722668c1.95797 4.26997572 3.516355 14.26883552 3.467517 22.22166532-.124316 18.9747046 7.28578 18.4098224 25.098425-1.9170412 15.890193-18.1251573 15.357412-18.89909044-17.222146-25.19285674-13.070894-2.52640231-14.465005-1.92593697-11.343796 4.88823262m-342.03597464-1.65970203c1.9579702 4.26997575 3.51635465 14.26883555 3.46751639 22.22166535-.12431557 18.9747046 7.28578025 18.4098224 25.09842535-1.9170412 15.8901935-18.12515738 15.3574125-18.89909048-17.2221461-25.19285678-13.07089408-2.5264023-14.46500438-1.92593697-11.34379564 4.88823263m696.01927764 0c1.95797 4.26997575 3.516355 14.26883555 3.467517 22.22166535-.124316 18.9747046 7.28578 18.4098224 25.098425-1.9170412 15.890193-18.12515738 15.357412-18.89909048-17.222146-25.19285678-13.070894-2.5264023-14.465005-1.92593697-11.343796 4.88823263" transform="translate(187 366)"/><path d="m100.725575.41168887c-.8895748.15907618-5.2565795.82876726-9.7044546 1.48863882-44.387098 6.58398637-76.645784 32.27773541-88.09811895 70.16830691-2.75498689 9.1174218-2.9641718 11.1186394-2.91780607 27.9856244.05499191 19.613504 1.0922903 25.114397 7.53712656 39.95267 12.96946466 29.863116 40.64656976 50.794399 77.06199736 58.280799 19.5070327 4.010291 57.1818827 3.507532 80.2784847-1.071309 13.097779-2.597262 26.247316-6.667452 28.671273-8.87488 1.895603-1.726271 1.903151-2.007109.164976-6.016418-1.561339-3.601799-1.826595-8.293564-1.851395-32.6823-.015096-15.66213.214576-30.90693.511101-33.877334l.539137-5.400735-15.549772-.273964c-8.552859-.150239-15.994019.130599-16.536391.624521-.594128.541055-.267411 2.159312.823801 4.080991 5.232858 9.216599 8.069793 26.000118 8.075185 47.785699l.004313 16.867967-5.660932 2.437204c-23.357545 10.055186-58.998772 9.290246-82.9849499-1.782242-21.8759977-10.09741-42.4321895-32.492783-49.5703552-54.005381-7.7754248-23.431333-8.2369255-44.1240014-1.3952849-62.4442749 9.8112038-26.2681908 32.633925-44.4863412 62.9139805-50.2199574 12.3699455-2.3429368 38.1212545-2.0208567 52.1388005.6520159 12.793707 2.4391681 28.535411 8.3269507 38.03715 14.2265167 1.77915 1.1046957 3.599275 2.0120191 4.043523 2.014965 1.463216.0117834.947802-23.21824872-.539136-24.29839562-1.84169-1.33840021-18.24761-3.91995132-32.617751-5.1326617-10.520708-.88768437-49.150907-1.24020504-53.374502-.48606611m230.663526 1.45366211c-8.350872.38056106-31.654143.74542889-51.786252.81114433-20.131025.06571544-36.602849.363887-36.602849.66205856s1.235278 2.17449455 2.746027 4.16851685c1.510749 1.99402229 3.828387 6.71572588 5.151512 10.49191168 2.404401 6.8638308 2.405485 6.8863898 2.405485 89.2553016 0 76.540835-.134481 82.62687-1.897925 85.728247-1.043317 1.836109-1.897926 3.490765-1.897926 3.678103 0 .186357 22.460593.339366 49.911102.339366h49.912187l1.033556-2.206862c1.128995-2.408912 4.240508-25.020909 3.532311-25.66237-.240766-.217744-4.724208 2.223536-9.963567 5.424956-11.276931 6.891294-18.773194 9.464005-31.797301 10.914649-16.185509 1.802761-27.463524-.606152-31.975164-6.829502-2.913045-4.017469-3.551832-75.724787-.693014-77.851221 1.432662-1.0661592 5.35215-1.3388292 17.129048-1.1926859 16.737534.2069546 30.758323 2.7178729 42.632829 7.6337799 3.32625 1.377082 6.226281 2.341236 6.44644 2.143109.350303-.317789-1.780796-24.4206434-2.197255-24.84338-.088932-.0902362-2.845804.4668739-6.125419 1.2387851-12.592465 2.9640607-49.321119 4.4421677-56.232821 2.262769l-3.415182-1.0769486v-35.1911096-35.1911097l2.934735-1.7390071c4.279551-2.5364199 30.603235-2.4873785 39.847759.0745429 9.475529 2.6256752 17.853514 6.7343616 24.118838 11.8277987 3.046441 2.4775703 5.873808 4.5039599 6.28376 4.5039599.739648 0-.072664-18.2257365-1.169122-26.23713547-.331866-2.42852888-1.108389-4.09789727-1.858883-3.99883369-.709282.09415944-8.122036.4815863-16.472909.86116654m617 0c-8.350872.38056106-31.654143.74542889-51.786252.81114433-20.131025.06571544-36.602849.363887-36.602849.66205856s1.235278 2.17449455 2.746027 4.16851685c1.510749 1.99402229 3.828387 6.71572588 5.151512 10.49191168 2.404401 6.8638308 2.405485 6.8863898 2.405485 89.2553016 0 76.540835-.134481 82.62687-1.897925 85.728247-1.043317 1.836109-1.897926 3.490765-1.897926 3.678103 0 .186357 22.460593.339366 49.911102.339366h49.912187l1.033556-2.206862c1.128995-2.408912 4.240508-25.020909 3.532311-25.66237-.240766-.217744-4.724208 2.223536-9.963567 5.424956-11.276931 6.891294-18.773194 9.464005-31.797301 10.914649-16.185509 1.802761-27.463524-.606152-31.975164-6.829502-2.913045-4.017469-3.551832-75.724787-.693014-77.851221 1.432662-1.0661592 5.35215-1.3388292 17.129048-1.1926859 16.737534.2069546 30.758323 2.7178729 42.632829 7.6337799 3.32625 1.377082 6.226281 2.341236 6.44644 2.143109.350303-.317789-1.780796-24.4206434-2.197255-24.84338-.088932-.0902362-2.845804.4668739-6.125419 1.2387851-12.592465 2.9640607-49.321119 4.4421677-56.232821 2.262769l-3.415182-1.0769486v-35.1911096-35.1911097l2.934735-1.7390071c4.279551-2.5364199 30.603235-2.4873785 39.847759.0745429 9.475529 2.6256752 17.853514 6.7343616 24.118838 11.8277987 3.046441 2.4775703 5.873808 4.5039599 6.28376 4.5039599.739648 0-.072664-18.2257365-1.169122-26.23713547-.331866-2.42852888-1.108389-4.09789727-1.858883-3.99883369-.709282.09415944-8.122036.4815863-16.472909.86116654m102.780949.96785341c-22.82691 5.60447699-35.70828 21.36982861-35.64782 43.62777691.06371 23.4718754 10.84821 39.2254508 41.52811 60.6620107 31.1226 21.747648 39.38806 32.632757 38.10964 50.192012-1.27842 17.546498-13.77972 28.748583-33.25402 29.797643-19.52288 1.051024-36.46518-7.693766-46.6461-24.077367-1.76107-2.833151-3.81151-5.152075-4.55761-5.152075-2.36788 0-3.80179 25.832998-1.63798 29.506182 1.54944 2.630994 10.46706 6.550497 20.31003 8.927321 11.95494 2.887125 38.04161 3.618229 47.6751 1.336596 35.22455-8.343419 50.07106-43.363795 32.25417-76.078985-5.75397-10.56519-18.43666-22.3678589-37.11303-34.536571-14.44376-9.4111249-24.2878-16.9733907-29.00305-22.2815006-15.00415-16.8870321-10.91084-42.9359268 8.12292-51.7023062 15.73514-7.24725313 39.37942-1.9803598 54.54769 12.1490851 4.03285 3.7565992 7.27317 6.0441208 7.81412 5.5161557 1.24279-1.2139271 3.32778-12.7241549 3.32778-18.3757366 0-3.98230914-.37467-4.73009612-2.9693-5.93322846-11.03393-5.11969121-48.01091-7.22370079-62.86065-3.57701255m-639.113753-.32011189c-13.231504.15602973-24.056297.55444528-24.056297.88514981 0 .33070452.937385 1.97833925 2.083437 3.66130147 3.370044 4.94879212 6.530339 16.95621232 7.650443 29.06470832.574108 6.2068432 1.050909 44.5724938 1.06064 85.2570009l.017299 73.971832 5.135614-.564258c2.825128-.310097 16.812378.336592 31.083979 1.437632 45.469103 3.506253 73.539829 1.884133 95.144005-5.495387 41.093561-14.03875 62.260939-48.90698 59.601232-98.180973-2.79053-51.6782252-31.400765-82.1687902-83.837005-89.34223259-10.267984-1.40524892-24.650947-1.51123138-93.883347-.69477391m232 0c-13.230423.15602973-24.056297.55444528-24.056297.88514981 0 .33070452.937385 1.97833925 2.083437 3.66130147 3.370044 4.94879212 6.530339 16.95621232 7.650443 29.06470832.574108 6.2068432 1.050909 44.5724938 1.06064 85.2570009l.017299 73.971832 5.135614-.564258c2.824047-.310097 16.812378.336592 31.083979 1.437632 45.469103 3.506253 73.539829 1.884133 95.144005-5.495387 41.093561-14.03875 62.260939-48.90698 59.601232-98.180973-2.79053-51.6782252-31.400765-82.1687902-83.837005-89.34223259-10.267984-1.40524892-24.650947-1.51123138-93.883347-.69477391m-205.350856 11.0918754c-7.964909 1.0000037-12.637943 3.0235405-15.2133 6.5872791-1.766978 2.4460874-1.921521 8.0441471-2.196024 79.3022512l-.296117 76.6708688 2.897411 2.067655c6.117958 4.364722 26.60085 7.645126 53.350839 8.542188 14.372499.482355 18.285788.27353 27.558368-1.469613 40.02988-7.528459 58.342686-33.487378 58.193382-82.491479-.150056-48.7717471-18.723315-76.8914579-57.682202-87.3307118-7.173821-1.9215757-10.973634-2.1941257-34.01351-2.4392246-14.265508-.1519614-28.935205.1009807-32.598847.5607863m233 0c-7.964909 1.0000037-12.637943 3.0235405-15.2133 6.5872791-1.766978 2.4460874-1.921521 8.0441471-2.196024 79.3022512l-.296117 76.6708688 2.897411 2.067655c6.117958 4.364722 26.60085 7.645126 53.350839 8.542188 14.372499.482355 18.285788.27353 27.558368-1.469613 40.02988-7.528459 58.342686-33.487378 58.193382-82.491479-.150056-48.7717471-18.723315-76.8914579-57.682202-87.3307118-7.173821-1.9215757-10.973634-2.1941257-34.01351-2.4392246-14.265508-.1519614-28.935205.1009807-32.598847.5607863"/><g transform="translate(660 297)"><path d="m-0 .62517588c0 .34394472 1.93738667 2.50854271 4.30445333 4.81130653 2.36706667 2.30178392 4.838 5.96072869 5.49072 8.13120599.81999997 2.73 1.09333337 30.1818845.88778667 89.0581656-.27552 79.143543-.4307733 85.295352-2.20962667 87.728442-1.05178666 1.439473-1.91333333 2.852488-1.91333333 3.141558 0 .288091 8.8997333.524247 19.7773067.524247h19.7773066l-2.88312-3.071006c-1.5853333-1.688366-3.9666133-4.884799-5.29064-7.104271l-2.40752-4.033266v-86.7642213c0-80.9828141.12792-86.93864323 1.9133334-89.38153268 1.0517866-1.43947236 1.9133333-2.85248744 1.9133333-3.14155779 0-.28809045-8.856-.52424623-19.68-.52424623s-19.68.28123116-19.68.62517588"/><path d="m117.090533.85447236c-2.979333.74766332-3.766533 1.84613066-5.498373 7.67751256-2.04016 6.86517588-10.52552 16.90522618-43.7234933 51.73183418-17.4670934 18.3241206-31.7657067 34.1024623-31.7733636 35.0627638-.0174898 1.9940955 65.1604839 77.5806031 72.8050699 84.4320601 12.7264 11.40603 20.69352 14.43392 39.519627 15.01892 16.78704.521306 18.360347-.410578 8.496293-5.030804-8.179226-3.829447-20.81816-13.691156-28.642053-22.347588-20.051733-22.183945-69.3348267-80.4840454-68.87344-81.4747238 1.0649067-2.2861055 52.494213-57.1565578 60.157387-64.1814573 4.297893-3.9401758 11.259146-9.671608 15.46848-12.73673362 8.421946-6.13123115 9.404853-7.07095477 8.61-8.22429648-.64288-.93286432-22.7796-.87211055-26.546134.07251256"/></g><path d="m87.038835.86020957c-8.223301.3783-31.1705826.741-50.9951457.806325-19.8234951.065325-36.0436893.361725-36.0436893.658125s1.21640777 2.161575 2.70407767 4.14375 3.76990291 6.67582503 5.07281553 10.42957503c2.3676699 6.82305 2.3687379 6.845475 2.3687379 88.7250004 0 76.086075-.1324272 82.13595-1.86893207 85.2189-1.02737864 1.8252-1.86893204 3.470025-1.86893204 3.65625 0 .18525 22.11747571.33735 49.14864081.33735h49.1497092l1.017766-2.19375c1.111748-2.3946 4.175729-24.87225 3.47835-25.5099-.237087-.21645-4.652039 2.210325-9.8113592 5.392725-11.1046602 6.85035-18.4864078 9.407775-31.3115534 10.8498-15.9382524 1.79205-27.0439806-.60255-31.486699-6.788925-2.8685437-3.9936-3.4975729-75.274875-.6824272-77.3886754 1.4107767-1.059825 5.2703883-1.330875 16.8673786-1.1856 16.4818447.205725 30.2884466 2.7017254 41.9815534 7.5884254 3.2754369 1.3689 6.1311648 2.327325 6.3479608 2.130375.344952-.3159-1.7535919-24.2755504-2.1636889-24.6957754-.0875729-.0897-2.8023301.4641-6.0318447 1.231425-12.4000971 2.94645-48.5676699 4.415775-55.3737864 2.249325l-3.3630097-1.07055v-34.982025-34.982025l2.8899029-1.728675c4.2141748-2.52135 30.1357281-2.4726 39.2390291.0741 9.3307767 2.610075 17.5807767 6.69435 23.7503887 11.757525 2.999903 2.46285 5.784077 4.4772 6.187767 4.4772.728349 0-.071554-18.11745-1.151262-26.08125003-.326797-2.4141-1.091457-4.07355-1.830486-3.975075-.698447.0936-7.9979611.478725-16.221262.85605" transform="translate(1020 297)"/><path d="m80.4313164 2.60026277c2.3946328-3.37319705 4.9798587-3.46632513 7.4868926-.26860099 1.0575481 1.34790641 11.4844633 28.14624632 23.172226 59.55295562 36.849 99.0186746 46.133333 120.4851876 57.426226 132.7731926l3.882237 4.223113h-16.775135-16.775136l-1.729022-4.166256c-.951012-2.290951-7.189763-19.449064-13.863458-38.127616l-12.134435-33.96136-4.320113-.594059c-5.624944-.773453-44.7073052-.755808-52.9321357.023527l-6.3687458.602882-10.4425537 29.534345c-11.4355932 32.342892-12.475548 35.736675-12.5058474 40.806763-.0342091 5.808252-.4202825 5.975882-13.0825141 5.66905l-11.4698023-.277424 3.06610734-3.431034c8.31181926-9.300064 11.29875706-16.230754 36.96433336-85.775862 33.9852147-92.088966 38.4235932-103.79957682 40.4008757-106.58361623zm-15.1907684 69.95977343c-7.3490791 20.5646404-13.0942429 37.6580538-12.7668135 37.9864528.9216892.925399 45.3641186 1.279286 49.9481295.398981l4.065989-.781296-13.3512993-37.4865024c-7.3432147-20.6175763-13.6171526-37.4904236-13.9416497-37.4963065-.3254746-.0049004-6.6042995 16.815011-13.954356 37.3786711z" transform="translate(291 293)"/><path d="m-0 .50459596c0 .27728283 1.30701802 2.81593939 2.9047027 5.63971717 6.05097298 10.69841417 6.02936937 10.33294947 5.69745946 98.00821187-.26218919 69.096334-.50572072 80.235657-1.853 84.703536l-1.55153153 5.143939h49.89254057 49.8925408l.553838-3.184343c1.399324-8.056879 3.034324-26.358526 2.389162-26.756324-.394757-.24299-3.07655 1.570616-5.959649 4.030889-6.5861531 5.623061-16.6917297 10.615132-26.8444414 13.262546-9.5723603 2.495545-35.7824414 3.233333-39.5021892 1.11207-4.7577027-2.71306-4.6683423-1.372697-4.9865045-74.68706-.3053964-70.3298992.4134144-93.1964245 3.217955-102.42220224.8130811-2.67582829 1.4837748-4.97541414 1.4896666-5.11062626.0058919-.13521213-7.9432522-.2449495-17.6648738-.2449495-9.72162165 0-17.6756757.22731313-17.6756757.50459596" transform="translate(7 297)"/></g></svg>