<svg height="2434" viewBox="0 0 1150 2434" width="1150" xmlns="http://www.w3.org/2000/svg"><g fill="#FFF" fill-rule="evenodd"><path d="m.08099158 1850.32281h574.95950442 574.959504v-925.161403-925.161407h-574.959504-574.95950442v925.161407zm15.42401022-111.39744c5.2212538-5.23516 6.6730821-22.50188 7.1747842-85.46623.6082583-75.65418 4.1956504-97.82692 10.069561-62.226 1.5139861 9.176 2.9480549 44.70131 3.1833666 78.95007.4528638 65.76652 5.0436602 67.01193 10.7044584 2.90892 4.1290528-46.7073 15.2197774-64.66789 15.5305663-25.14837.2797101 35.9612 2.4996309 38.38085 25.9686343 28.31527l19.2378344-8.24639-15.7214797-18.39648c-29.5249475-34.56011-30.8879789-77.1976-4.3244059-135.32264 11.6856635-25.57983 9.9452455-37.33116-10.349271-69.84079-5.7273959-9.176-8.8486046-16.6796-6.9394727-16.6796 1.909132 0 9.9230463 11.76468 17.8126451 26.14026 12.6624282 23.07121 14.3451282 30.1567 14.3451282 60.34009 0 18.80569-2.2288002 38.37196-4.954863 43.46925-12.4803951 23.36922-.1909132 60.74485 28.823453 87.6457 15.614923 14.46899 17.417499 10.79503 8.746488-17.79602-7.59213-25.03273-9.008439-63.2757-6.340094-170.88798 1.158798-46.85409 2.251-54.86919 5.745155-42.25497 2.370875 8.56219 7.059348 23.57382 10.415869 33.35918 10.247154 29.85425 12.165166 53.91289 6.642003 83.24229-4.439842 23.57827-4.120173 33.11455 2.037887 60.23335 10.264914 45.22171 10.540185 44.99931 31.349723-25.60651 3.245524-11.00854 6.495488-25.86449 7.223622-33.0167 2.126684-20.83393 11.024127-18.53881 14.354009 3.70064 3.08125 20.58484 1.189877 39.68409-7.205864 72.81198-5.900549 23.26248-3.818263 25.86449 13.523758 16.87975 17.293184-8.95805 31.789267-8.83351 61.420771.52485 26.35934 8.32201 33.254414 19.66413 24.134979 39.71523-7.436734 16.35489-6.340094 41.48103 1.953531 44.67017 10.593462 4.07427 14.02102-1.87701 28.04648-48.68217 12.569192-41.94362 11.956494-45.38184-5.434366-30.3791-7.512212 6.47613-8.679891 6.35159-14.429486-1.52563-3.445317-4.71921-6.273496-14.70028-6.286816-22.18163-.048838-28.84902-8.733168-45.79549-39.208242-76.55711-42.489285-42.88657-52.052705-65.53523-57.020887-135.10915-1.807016-25.29515-.883529-30.11667 7.161464-37.40676 12.63135-11.45332 14.078738-8.21081 9.341427 20.95846-6.189139 38.10953 9.732133 79.39931 37.165915 96.38581 13.732431 8.49992 62.322059 60.12659 62.721645 66.63386.088796 1.40998 2.388634 6.56509 5.114697 11.45777 2.721623 4.89268 6.375613 18.40092 8.116031 30.02326 3.556313 23.75174 8.96848 27.3234 13.070894 8.62002 2.850378-13.00119-1.513986-24.27215-18.687294-48.28631-5.492084-7.68596-9.989644-16.99984-9.989644-20.70494 0-20.40692 14.713636-28.55991 19.486466-10.79503 3.463076 12.90333 19.015842 32.96332 22.70091 29.27602 13.927784-13.95748 29.689222-136.02096 29.47611-228.31916-.226432-100.05087-4.395444-145.3304-13.146372-142.804-4.102414 1.18314-20.800658 3.4916-37.108197 5.13287-20.20128 2.02824-32.623957 5.75112-38.97737 11.68461-12.471516 11.64013-29.169761 9.24717-28.699137-4.1143.479502-13.55273-2.970255-12.70763-25.458053 6.25818-20.929414 17.64479-55.156154 34.57346-103.070926 50.96839-25.289338 8.65115-33.742797 14.25104-49.4509569 32.75872-16.9601954 19.97548-33.2632943 54.71351-33.2632943 70.86381 0 3.28254-3.0990095 8.54439-6.8817547 11.6935-19.9260097 16.56395-30.0488488-40.89391-13.74575-78.02491 18.5141401-42.16156 30.4040362-63.40469 44.829082-80.07539 8.4578985-9.78091 17.9014419-22.7821 20.9782519-28.89795 17.737168-35.20951 61.145501-82.13921 173.038392-187.087205 49.273363-46.213591 70.11842-63.578159 123.227807-102.648437 8.777567-6.458338 41.934305-25.219544 73.679174-41.694534 67.139286-34.840333 119.125393-74.297577 141.027132-97.79134 24.396931-26.166945 66.402273-124.153992 75.162081-175.344773 9.572299-55.914443-11.583547-211.016863-45.241987-331.714844-4.77727-17.124381-8.733169-38.523187-8.786447-47.552406-.057718-9.02922-2.064526-17.626994-4.453161-19.108142-14.740275-9.127073-62.251021 43.122307-62.251021 68.457496 0 5.128419-2.228801 9.322781-4.959303 9.322781-3.130089 0-3.773866-3.69175-1.753738-10.007756 1.758178-5.506489 4.20897-16.532812 5.447686-24.503433 1.234276-7.97507 4.022497-15.598755 6.193579-16.942019 0-11.359914 39.412475-90.501246 52.723121-105.6907946l13.368363-15.2518195-9.980764-6.8230654c-9.923046-6.7830344-9.931926-6.8586485-1.101081-13.7395365 15.455089-12.035994 36.997201-13.428184 72.857803-4.6925254 23.442364 5.7110926 46.343068 7.8371846 75.255317 6.9831895 36.433342-1.0719418 42.547004-.1512283 49.628551 7.4591138 5.154657 5.5465206 14.203054 8.7845855 25.040708 8.9580533 9.332547.1556762 29.955612 3.3626058 45.828046 7.1388656 15.872434 3.7718119 39.048408 6.8853359 51.506604 6.920919 26.572453.0800621 50.609753 7.454666 50.609753 15.5320367 0 11.1686555-36.060392 20.7405175-117.655803 31.2241975-86.354922 11.097489-113.495674 24.027509-132.68467 63.231224-16.800361 34.31993-16.422975 37.068727 19.459826 141.385123 41.499201 120.653502 46.422985 147.40312 60.994546 331.367908 5.549802 70.089872 3.9337 110.917067-6.246857 157.900144-5.301171 24.463402-10.899812 52.067016-12.444877 61.34087-5.825072 35.000457-26.536934 69.347074-36.064834 59.806347-1.243156-1.249857-.00444-19.010288 2.757141-39.470588 3.121209-23.164618 3.551874-43.909584 1.13216-54.989281l-3.884861-17.791566-7.783043 15.56762c-4.959303 9.91435-8.560015 30.107777-9.914167 55.598642-2.903656 54.629002-5.376648 67.634637-13.4394 70.734817-16.547291 6.364933-16.906918 4.519058-7.263582-37.375631 2.304278-10.016652 1.815896-10.50592-4.941543-4.923816-4.129053 3.402637-6.677522 7.018773-5.669678 8.032892 1.012284 1.009671-11.898776 16.417167-28.690258 34.239868-16.791481 17.818253-35.563132 39.830865-41.712313 48.909015-12.755665 18.83237-25.102865 30.3702-60.56832 56.61276-24.365852 18.03175-25.213862 19.38836-32.810431 52.35168-4.288887 18.61443-11.632385 48.85564-16.311978 67.20319-15.881314 62.24379-28.881171 146.56692-39.088367 253.52981-2.219921 23.24023-5.372208 48.75779-7.00607 56.71062-2.739383 13.31253-2.077846 14.45564 8.364662 14.45564 13.825667 0 25.23606 10.61267 25.444733 23.66723.088796 5.33302 3.014652 14.69584 6.504368 20.81169 9.066156 15.89231 8.098271 52.14707-2.25988 84.63447-4.906025 15.38081-8.40018 28.3731-7.769723 28.87127 1.926892 1.51228 38.893014 6.77414 38.835296 5.52873-.026639-.6405-3.001333-12.17388-6.606485-25.62875-7.640967-28.51988-8.520056-66.50488-2.073406-89.74956 4.062455-14.66025 3.400919-17.48911-6.393372-27.30115-11.401513-11.42219-14.149775-22.21722-17.555134-68.93787-1.571704-21.56338-.581619-28.65777 4.253368-30.51254 8.888563-3.42043 28.428307 10.49703 28.428307 20.2468 0 13.85074 20.720741 32.86103 29.924533 27.45239 20.552028-12.06713 35.971598-30.77496 42.942149-52.0937 10.171678-31.11745 20.369994-34.91595 20.369994-7.59255 0 11.1731-2.80598 26.62507-6.237977 34.33327-3.431998 7.70819-10.180557 26.18474-14.997786 41.06293l-8.755368 27.04763 9.563419 15.87008c5.256773 8.72676 16.862519 22.57749 25.791041 30.77496 8.924082 8.19746 21.33344 22.64866 27.566977 32.11377 12.551433 19.03698 17.652811 15.27851 15.108782-11.12417-.990085-10.28798-4.635195-16.37714-12.009772-20.03775-14.03434-6.96985-18.118994-14.16209-18.203351-32.04706-.035519-8.17967-4.062455-19.95769-8.946281-26.17584-13.030936-16.59509-11.774461-41.57889 2.823739-56.20801 6.437771-6.44944 13.696912-11.72464 16.125505-11.72464 8.000595 0-.137635-36.1658-14.176414-62.99104-7.507773-14.35334-13.652514-28.92908-13.652514-32.38509 0-3.46046-7.263581-13.93969-16.138824-23.28916-20.001487-21.06077-23.064978-31.76684-18.549659-64.84136 2.721623-19.95324 2.002368-29.10256-3.07681-38.93684-20.072525-38.89237 3.685068-35.40522 35.150227 5.15955 28.987726 37.38008 33.258854 53.02331 22.314644 81.74335l-7.84964 20.58039 14.59376 28.49764c8.022794 15.67437 15.845795 27.73705 17.38198 26.80299 1.536185-.93405 3.103449 5.60435 3.485276 14.52682 1.10552 25.95344 8.635492 39.82197 25.431413 46.85409 19.615221 8.2108 24.299254 17.40459 23.424605 45.96451-.679296 22.00371 7.165905 36.12132 20.378874 36.68176 6.286816.26687 3.329881-17.92945-3.329882-20.48699-10.260474-3.94528-7.929557-26.10468 4.275568-40.63149 6.011546-7.1611 20.924974-19.82425 33.138979-28.14181 21.360078-14.54905 31.403-30.33462 31.403-49.36714 0-4.64805 3.125649-14.50903 6.948353-21.91477 9.834249-19.04587.626017-31.54889-32.335368-43.89179-58.672508-21.98148-78.656236-42.45067-78.092376-79.99977.692615-45.80439 32.166653-75.55189 73.883406-69.823 13.523758 1.85922 22.048254.72945 27.868887-3.68286 19.371029-14.69138 46.83145-3.08238 53.242582 22.51078 3.378719 13.49046-.097677 66.99859-5.159096 79.4349-2.348676 5.76891-1.886933 7.53472 1.434069 5.4798 7.592129-4.70142 18.807169-48.43309 18.807169-73.33684 0-32.06929-11.126243-75.69421-27.003117-105.86426-10.970849-20.84727-13.115293-29.16037-10.735537-41.61892 1.633861-8.56219 4.000297-25.57537 5.256772-37.80707 2.783781-27.06987 5.700757-30.73938 17.732728-22.29728 22.079333 15.492 35.767365 60.7493 27.811169 91.91567-6.149181 24.07199-6.140302 27.96834.110996 52.5296 8.981799 35.27622 6.810717 100.90041-4.422083 133.60576-11.587987 33.7417-15.108781 39.01245-27.309466 40.87612-7.432295 1.13421-10.922011 8.8691-19.65518 43.58044-13.812347 54.86474-13.710231 57.87596 1.98017 57.87596 9.021758 0 13.998821-3.0557 17.492976-10.73276 2.681665-5.9068 8.999559-12.04489 14.0299-13.64613 7.991715-2.53974 11.827739-12.95671 9.567859-25.98903-.350747-2.01934 1.41187-2.40186 3.911501-.84955 2.50407 1.54787 4.550837-.05782 4.550837-3.5761 0-3.51383 3.001333-8.88244 6.668643-11.93369 4.76395-3.95863 6.362293-12.69873 5.58976-30.56591-.679295-15.75443 1.576144-30.78831 6.095903-40.59146 3.947019-8.56219 8.373542-30.75717 9.83425-49.32711 2.335356-29.6541 1.593903-34.90261-6.104783-43.18013-12.298361-13.22358-11.632385-31.00625 1.225397-32.83434 9.092795-1.29433 10.109519-4.15433 11.312716-31.85135 1.207637-27.85714.350748-31.3265-10.140598-41.07183-11.006368-10.2168-11.170642-11.08414-4.142373-21.8347 4.026937-6.15588 10.873173-11.19089 15.215338-11.19089 10.180557 0 13.284006-8.67339 13.284006-37.09986 0-18.21412-1.855853-24.19208-8.879683-28.586601-4.883826-3.055701-8.879683-9.158208-8.879683-13.56162 0-10.203463 10.882052-25.277367 18.243309-25.277367 9.723254 0 27.273945-51.662258 21.355639-62.853153-10.406989-19.673024 7.068226-40.173355 29.449466-34.542325 21.05373 5.292991 23.61996 41.78794 2.94362 41.801284-5.23901.004448-10.54019 8.059579-16.99571 25.846696l-9.38583 25.842249 12.97766 14.549053c16.1699 18.134053 15.15318 31.926964-2.71275 36.681764-7.11706 1.8948-14.576 6.03578-16.578365 9.19824-5.243453 8.27752-4.599676 37.55354 1.260915 57.14206 4.4576 14.91378 3.95146 18.22746-4.439842 28.91574-11.725622 14.93157-13.612555 65.96668-2.961374 80.07539 9.181596 12.15608 8.329146 22.62642-2.455233 30.19228-6.775198 4.7548-10.304873 14.05979-13.17301 34.72469-2.153324 15.52314-5.207935 36.47271-6.788518 46.55163-1.824775 11.64013-1.070002 19.44618 2.073406 21.38991 8.515616 5.2752 5.860591 30.96177-3.831584 37.02425-13.799028 8.6378-26.616851 38.48316-29.578225 68.8756-2.290959 23.49376-5.017021 30.29014-17.439699 43.42031-8.098271 8.56219-23.762033 33.50152-34.808359 55.42073-18.678414 37.06428-19.579702 40.40465-12.90218 47.79704 5.34557 5.92014 8.666571 6.71187 13.008736 3.10018 3.449757-2.86889 12.764545-3.67841 22.789708-1.97931 16.391896 2.77548 17.213266 2.29066 24.574524-14.42006 9.279269-21.07411 9.336987-23.32475.981205-39.37274-9.5279-18.30307-8.360222-26.08688 6.45109-42.98442 13.337285-15.21624 24.41913-50.43909 19.726217-62.68858-1.41187-3.69175-1.331953-8.72677.182033-11.182 8.915203-14.4512 32.912547 24.19653 24.641122 39.67964-2.393075 4.48347-10.10952 12.80992-17.146669 18.50323-12.791184 10.34579-31.158809 54.58897-25.160583 60.59807 3.65843 3.66506 53.58445-49.73632 63.614055-68.0394 4.01805-7.33902 8.3691-25.35298 9.66553-40.03102 2.51739-28.49319 12.68463-37.29112 17.99468-15.56762 2.62839 10.75945 2.8859 10.61712 7.93844-4.44789 7.60545-22.67535 3.87154-34.50229-22.91846-72.62962-9.42579-13.41484-17.74605-45.80438-13.52376-52.64524 1.56726-2.53975 7.52553 3.09573 13.23961 12.51637 32.92586 54.25982 46.01896 130.1453 25.92867 150.26756-5.11914 5.13286-5.572 10.49257-2.1622 25.73105 2.36643 10.59043 4.80835 26.70959 5.42105 35.82776.61269 9.11818 2.45523 16.5773 4.09797 16.5773 3.94702 0 20.6275-38.97688 33.31213-77.8381l10.16724-31.13524.27971 19.09035c.4573 31.30426-23.1005 135.12694-35.94496 158.41165-2.57511 4.66584-5.26565 22.60863-5.98047 39.8709-1.17655 28.42202-2.49963 32.34951-13.95886 41.53441-6.95723 5.5821-14.02102 10.15453-15.69484 10.16788-1.67382.01334-8.59553 2.13943-15.38849 4.72366-9.887528 3.76736-11.050767 5.52873-5.83839 8.82906 15.45509 9.79426 24.90751 4.45234 45.59273-25.76219 16.65385-24.32551 21.32012-35.51196 24.59673-58.93456 3.44531-24.668 4.12017-26.16694 4.59079-10.2257.47062 16.16364-5.84727 48.07726-15.646 79.01234-2.45967 7.76157-1.90025 8.19302 4.13349 3.18025 19.58414-16.28373 47.35535-91.1373 56.8211-153.1409 3.92482-25.7444 7.87628-38.91905 11.6679-38.91905 9.15051 0 8.25367-214.75754-.93237-222.39457-3.66287-3.04681-6.65976-9.36281-6.65976-14.03755 0-4.67473-4.99482-18.37424-11.0996-30.44137-6.10479-12.06713-11.05521-26.51388-11.00193-32.10043.13319-14.00641 14.44724-43.98964 25.84876-54.15308l9.44354-8.41541.09324-550.906927.09323-550.90693024h-566.106455-566.11089996v868.29066724c0 764.99729.7769723 867.51229 6.54432676 861.73892zm675.5529982-1682.4282537c-1.540625 1.5434183-2.80154 5.4753543-2.80154 8.7401065 0 6.7518992 15.885754 8.1174018 19.841653 1.7035424 3.023532-4.9015763-12.853342-14.6380105-17.040113-10.4436489m39.376956 21.1808587-13.319525 6.1114028 15.539446.3113524c23.033899.4625807 49.002533-4.6213592 46.267591-9.0559069-3.627351-5.8845603-33.454208-4.2655278-48.487512 2.6331517m-64.377705 669.314247c0 5.444219 17.976919 18.045095 25.746642 18.045095 3.307683 0 .075478-5.003878-7.179224-11.119728-14.145335-11.924797-18.567418-13.574965-18.567418-6.925367m49.282243 34.524533c3.236645 5.390844 6.837357 8.846856 8.005035 7.67706 1.167679-1.169795-1.478467-5.582104-5.87835-9.8076-7.645408-7.334573-7.743084-7.241168-2.126685 2.13054m333.654106 53.183437c-13.54152 5.475354-2.78378 25.344085 11.0996 20.491435 3.05462-1.063046 5.54981-6.774138 5.54981-12.685386 0-10.332452-4.81279-12.59198-16.64941-7.806049m25.52909 93.112158c0 1.45446 3.71615 7.961725 8.26255 14.455647 11.21948 16.0302 19.83721 54.869188 16.1477 72.767503-1.6605 8.05958-14.72251 38.66997-29.02768 68.02605-46.94245 96.34133-47.92366 134.61543-4.89715 190.85902 23.59332 30.83723 31.64719 51.23081 31.68715 80.23996.0444 31.29981 8.87968 10.84841 11.81886-27.35898 2.63726-34.22652 2.21104-36.61059-9.27927-51.70229-40.81103-53.60154-39.46131-134.69994 3.21001-193.0118 35.8162-48.94015 31.80702-115.912047-8.85749-147.959104-11.255-8.864648-19.06468-11.453321-19.06468-6.316006m-717.345228 194.16825c-4.710672 5.50649-12.262843 15.74998-16.778162 22.75986-13.73243 21.31874 1.940211 11.19534 18.562978-11.99596 15.14874-21.12304 13.843427-29.00915-1.784816-10.7639m98.346934 77.8381c-4.368804 9.176-9.581178 30.69045-11.579107 47.81483-2.002369 17.12438-6.837356 42.14377-10.744417 55.59864-3.911501 13.45488-9.985204 53.4859-13.501559 88.95783-3.516354 35.47194-9.461302 80.18214-13.212969 99.357-9.709934 49.63847-9.017318 62.75085 3.764986 71.13957 6.291256 4.13209 11.565788 12.91223 12.995417 21.639 5.576441 34.01747 15.268616 58.46753 26.399299 66.58938 14.837951 10.83061 15.947911 8.51771 21.03153-43.82952 5.412167-55.74098 5.563122-51.54217-2.24656-61.65223-19.779495-25.60651-33.747237-51.74677-32.464123-60.76709 2.073406-14.57574 13.799028-14.74031 20.347795-.28466 3.07681 6.78303 9.5279 17.33788 14.331809 23.45373l8.742049 11.11973.399585-33.35919c.221992-18.34755 1.98461-75.39176 3.920381-126.7649 1.94909-51.72898 1.815895-95.29163-.30191-97.63122-2.104485-2.3218-3.822703-15.7055-3.822703-29.73415 0-26.0602-5.709637-48.32634-12.387159-48.32634-2.051207 0-7.30354 7.50804-11.672344 16.67959m313.972288 142.10568c-5.376648 1.04526-15.867994 8.8513-23.309169 17.34233-11.805539 13.46821-13.532638 18.78344-13.532638 41.61002 0 34.98712 2.52627 40.24008 19.344391 40.23563 23.362447-.00445 87.211811-42.58856 87.211811-58.16508 0-12.40072-21.666428-35.23619-33.432008-35.23619-5.745156 0-11.676784-2.00155-13.18633-4.44789-2.792661-4.52796-5.780674-4.70143-23.096057-1.33882m-205.413718 167.02277c.075478 5.50649 3.152288 14.00196 6.832917 18.8813 5.745155 7.61479 7.29022 7.93059 10.890932 2.22394 6.269056-9.92769 5.274532-14.98494-4.595237-23.45373-11.627945-9.97217-13.297326-9.67416-13.128612 2.34849m266.372745 36.91305c-8.475658 5.99576-20.014807 10.90178-25.640086 10.90178-6.544327 0-11.601307 3.63393-14.056539 10.10116-4.377684 11.53783-19.117959 20.54481-40.882063 24.97936-14.913428 3.04236-15.011105 3.22027-16.325298 30.69045-.763652 15.99017.515022 27.63475 3.032412 27.63475 2.393075 0 5.656359 4.11875 7.254702 9.15376 3.431997 10.84841 23.251451 10.49258 20.374433-.36473-5.03034-18.9658-7.268021-43.42476-4.866066-53.26794l2.712743-11.11973 5.274532 9.71419c2.903657 5.34637 5.278972 13.24138 5.278972 17.55583 0 9.90101 22.092652 42.26386 26.843283 39.32381 1.94909-1.20983 7.880719-15.25182 13.18189-31.20641 5.301171-15.95903 14.700316-35.04493 20.893895-42.41509 6.948353-8.27308 12.107449-20.98515 13.4838-33.2124 2.583987-22.96892 3.369839-22.56416-16.56061-8.46879m-331.882609 24.03196c1.247595 4.77703.599378 9.2783-1.442949 10.00775-5.216814 1.86367-9.931926 66.86515-5.33669 73.55034 2.952495 4.28776 6.828477 4.35448 17.537375.3069 10.882052-4.1143 14.296291-8.51326 16.374136-21.07411 5.465446-33.11455 3.196687-51.68005-7.55661-61.80345-12.946579-12.17833-22.625434-12.6676-19.575262-.98743m539.320898 7.22782c-1.82922 1.85032-3.32989 7.43243-3.32989 12.40962 0 6.54285 1.34084 7.6993 4.85719 4.17657 2.66835-2.67318 4.16901-8.25974 3.32988-12.40517-.83913-4.14988-3.02797-6.03134-4.85718-4.18102m-158.724346 21.20755c0 22.39958 3.742787 24.88595 23.722075 15.76777 11.836618-5.40419 11.876576-5.32857-14.03878-27.99947l-9.683295-8.47324zm-493.799197 12.02265c-1.092201 7.45466-1.061122 34.40444.071037 59.89086 1.904693 42.91325 2.646146 46.02233 10.038483 42.05926 12.404917-6.6496 15.863554-46.9475 6.464409-75.29836-5.629719-16.98205-6.282376-24.25435-2.575108-28.72893 3.773865-4.55909 3.254404-6.6496-2.171083-8.73566-9.998523-3.84297-9.634456-4.18101-11.827738 10.81283m267.398233-7.99731c.013435 3.06015 4.089209 11.56452 9.057392 18.90354l9.026198 13.34367-2.766021-13.34367c-4.364364-21.01629-5.878351-24.46341-10.771056-24.46341-2.51739 0-4.564157 2.50417-4.546513 5.55987m183.112508 18.94357c-12.63135 31.13969-12.884421 42.21494-.972326 42.21494 11.858817 0 13.905584-6.57399 12.298362-39.4528l-1.336393-27.39456zm-219.94976-.48482c-1.416309 8.73121-.705935 22.39958 1.576144 30.3702s4.151252 24.18319 4.151252 36.02347c0 23.12459 8.222587 27.34119 13.865626 7.11218 7.228062-25.92231 3.92038-63.74273-6.721921-76.77505l-10.300433-12.60977zm501.879712 29.74305c-9.55898 16.82192-9.44799 23.14682.82581 48.53984l8.10271 20.01551.6571-41.143c.35962-22.62642.09767-41.12965-.58162-41.11631-.6793.0178-4.73287 6.18257-9.004 13.70396m-433.994532 7.59255c0 2.35293 3.227765 6.9565 7.170345 10.23904 6.206898 5.15956 6.952792 4.83041 5.549802-2.4241-1.669381-8.6467-12.720147-15.42973-12.720147-7.81494m-321.049395 20.49588c-4.182331 9.54518-8.870804 25.25958-10.411429 34.9204-2.486311 15.55427-1.851414 17.38236 5.549802 15.95458 6.411132-1.23651 9.177153-7.29899 11.881017-26.02461 5.243453-36.2859 2.406394-46.33368-7.01939-24.85037m-251.295042 8.85131c-3.711708 4.48347-3.272164 7.36126 1.771497 11.55562 3.689508 3.06904 6.71304 8.33979 6.71304 11.70685 0 7.0588 15.863555 8.35314 20.010367 1.63237 1.527306-2.47302-3.147848-10.4303-10.38479-17.68036-10.682259-10.69718-14.092057-12.05824-18.110114-7.21448m390.923624-.26688c-3.374279 4.07872-4.715112 10.76835-3.032412 15.14507 2.872578 7.46801 3.227765 7.46356 7.458935-.08006 2.441913-4.35893 3.804944-11.17755 3.027972-15.14952-1.291994-6.6407-1.895813-6.63625-7.454495.08451m587.173505 10.0211c-1.93577 7.73044-.54166 13.83294 4.25337 18.63667 9.75877 9.78091 13.4172 4.47013 9.89197-14.3578-3.47196-18.53881-10.06956-20.53146-14.14534-4.27887m-666.029534-.55598c-1.522865 3.97641-1.811455 8.19301-.639337 9.3717 3.760546 3.76737 17.159988-3.44267 15.526127-8.35314-2.668345-8.0151-11.965374-8.65115-14.88679-1.01856m-356.7945608 32.42512c.1065562 18.91689 5.7895536 25.28627 17.1289094 19.206 12.8311426-6.88089 11.8987758-19.99327-1.8647336-26.2737-15.2286571-6.95205-15.3396531-6.90312-15.2641758 7.0677m457.7787618-6.54729c-8.14267 8.15743-5.722956 16.40827 6.43777 21.95924 12.267283 5.59989 20.871696-.80062 18.545219-13.79736-1.553945-8.66894-18.838248-14.31776-24.982989-8.16188m-253.61264 5.43532c0 3.66951 1.935771 6.67184 4.302207 6.67184 2.361996 0 3.147848-3.00233 1.744858-6.67184-1.40743-3.66951-3.343201-6.67184-4.302207-6.67184s-1.744858 3.00233-1.744858 6.67184m-126.273538 9.03812c-4.741751 3.58944-12.848902 6.5295-18.021318 6.5295s-13.075334 2.69097-17.564014 5.97797c-7.170344 5.25296-3.893741 6.31155 26.896561 8.67338 26.350461 2.01935 36.566537 1.20094 41.112935-3.30033 5.088058-5.04391 4.630755-6.4361-2.921416-8.83796-4.932664-1.57011-10.087321-5.77781-11.454792-9.35392-3.099009-8.08626-7.054908-8.01954-18.047956.31136m58.05537 26.25145c-10.340391 15.81225-9.070597 20.30907 5.749595 20.30907 12.471515 0 12.844462-.57822 9.017319-13.94858-5.376649-18.77455-6.366733-19.20155-14.766914-6.36049m-124.1734936-3.41153c-1.6294219 1.62793-2.9613744 7.63258-2.9613744 13.34367 0 8.03734 2.441913 10.37693 10.8376537 10.37693 13.9144643 0 17.5773333-6.16922 10.4425077-17.6092-5.7140763-9.1671-12.8844207-11.56007-18.318787-6.1114m452.5219886 556.37339c1.95797 4.26997 3.516355 14.26883 3.467517 22.22166-.124316 18.97471 7.28578 18.40982 25.098425-1.91704 15.890193-18.12516 15.357412-18.89909-17.222146-25.19286-13.070894-2.5264-14.465005-1.92593-11.343796 4.88824m-342.035975-1.65971c1.957971 4.26998 3.516355 14.26884 3.467517 22.22167-.124316 18.9747 7.28578 18.40982 25.098425-1.91704 15.890194-18.12516 15.357413-18.89909-17.222146-25.19286-13.070894-2.5264-14.465004-1.92593-11.343796 4.88823m696.019278 0c1.95797 4.26998 3.516355 14.26884 3.467517 22.22167-.124316 18.9747 7.28578 18.40982 25.098425-1.91704 15.890193-18.12516 15.357412-18.89909-17.222146-25.19286-13.070894-2.5264-14.465005-1.92593-11.343796 4.88823"/><path d="m100.725575 1942.41169c-.8895748.15908-5.2565795.82877-9.7044546 1.48864-44.387098 6.58398-76.645784 32.27773-88.09811895 70.1683-2.75498689 9.11743-2.9641718 11.11864-2.91780607 27.98563.05499191 19.6135 1.0922903 25.1144 7.53712656 39.95267 12.96946466 29.86312 40.64656976 50.7944 77.06199736 58.2808 19.5070327 4.01029 57.1818827 3.50753 80.2784847-1.07131 13.097779-2.59726 26.247316-6.66745 28.671273-8.87488 1.895603-1.72627 1.903151-2.00711.164976-6.01642-1.561339-3.6018-1.826595-8.29356-1.851395-32.6823-.015096-15.66213.214576-30.90693.511101-33.87733l.539137-5.40074-15.549772-.27396c-8.552859-.15024-15.994019.1306-16.536391.62452-.594128.54105-.267411 2.15931.823801 4.08099 5.232858 9.2166 8.069793 26.00012 8.075185 47.7857l.004313 16.86797-5.660932 2.4372c-23.357545 10.05519-58.998772 9.29025-82.9849499-1.78224-21.8759977-10.09741-42.4321895-32.49278-49.5703552-54.00538-7.7754248-23.43134-8.2369255-44.124-1.3952849-62.44428 9.8112038-26.26819 32.633925-44.48634 62.9139805-50.21996 12.3699455-2.34293 38.1212545-2.02085 52.1388005.65202 12.793707 2.43917 28.535411 8.32695 38.03715 14.22652 1.77915 1.10469 3.599275 2.01202 4.043523 2.01496 1.463216.01179.947802-23.21825-.539136-24.29839-1.84169-1.3384-18.24761-3.91995-32.617751-5.13267-10.520708-.88768-49.150907-1.2402-53.374502-.48606m230.663526 1.45366c-8.350872.38056-31.654143.74543-51.786252.81115-20.131025.06571-36.602849.36388-36.602849.66205 0 .29818 1.235278 2.1745 2.746027 4.16852s3.828387 6.71573 5.151512 10.49191c2.404401 6.86383 2.405485 6.88639 2.405485 89.2553 0 76.54084-.134481 82.62687-1.897925 85.72825-1.043317 1.83611-1.897926 3.49077-1.897926 3.6781 0 .18636 22.460593.33937 49.911102.33937h49.912187l1.033556-2.20686c1.128995-2.40891 4.240508-25.02091 3.532311-25.66237-.240766-.21775-4.724208 2.22353-9.963567 5.42495-11.276931 6.8913-18.773194 9.46401-31.797301 10.91465-16.185509 1.80276-27.463524-.60615-31.975164-6.8295-2.913045-4.01747-3.551832-75.72479-.693014-77.85122 1.432662-1.06616 5.35215-1.33883 17.129048-1.19269 16.737534.20696 30.758323 2.71788 42.632829 7.63378 3.32625 1.37709 6.226281 2.34124 6.44644 2.14311.350303-.31779-1.780796-24.42064-2.197255-24.84338-.088932-.09023-2.845804.46688-6.125419 1.23879-12.592465 2.96406-49.321119 4.44217-56.232821 2.26277l-3.415182-1.07695v-35.19111-35.19111l2.934735-1.73901c4.279551-2.53642 30.603235-2.48738 39.847759.07454 9.475529 2.62568 17.853514 6.73437 24.118838 11.8278 3.046441 2.47757 5.873808 4.50396 6.28376 4.50396.739648 0-.072664-18.22573-1.169122-26.23713-.331866-2.42853-1.108389-4.0979-1.858883-3.99884-.709282.09416-8.122036.48159-16.472909.86117m617 0c-8.350872.38056-31.654143.74543-51.786252.81115-20.131025.06571-36.602849.36388-36.602849.66205 0 .29818 1.235278 2.1745 2.746027 4.16852s3.828387 6.71573 5.151512 10.49191c2.404401 6.86383 2.405485 6.88639 2.405485 89.2553 0 76.54084-.134481 82.62687-1.897925 85.72825-1.043317 1.83611-1.897926 3.49077-1.897926 3.6781 0 .18636 22.460593.33937 49.911102.33937h49.912187l1.033556-2.20686c1.128995-2.40891 4.240508-25.02091 3.532311-25.66237-.240766-.21775-4.724208 2.22353-9.963567 5.42495-11.276931 6.8913-18.773194 9.46401-31.797301 10.91465-16.185509 1.80276-27.463524-.60615-31.975164-6.8295-2.913045-4.01747-3.551832-75.72479-.693014-77.85122 1.432662-1.06616 5.35215-1.33883 17.129048-1.19269 16.737534.20696 30.758323 2.71788 42.632829 7.63378 3.32625 1.37709 6.226281 2.34124 6.44644 2.14311.350303-.31779-1.780796-24.42064-2.197255-24.84338-.088932-.09023-2.845804.46688-6.125419 1.23879-12.592465 2.96406-49.321119 4.44217-56.232821 2.26277l-3.415182-1.07695v-35.19111-35.19111l2.934735-1.73901c4.279551-2.53642 30.603235-2.48738 39.847759.07454 9.475529 2.62568 17.853514 6.73437 24.118838 11.8278 3.046441 2.47757 5.873808 4.50396 6.28376 4.50396.739648 0-.072664-18.22573-1.169122-26.23713-.331866-2.42853-1.108389-4.0979-1.858883-3.99884-.709282.09416-8.122036.48159-16.472909.86117m102.780949.96785c-22.82691 5.60448-35.70828 21.36983-35.64782 43.62778.06371 23.47188 10.84821 39.22545 41.52811 60.66201 31.1226 21.74765 39.38806 32.63276 38.10964 50.19201-1.27842 17.5465-13.77972 28.74859-33.25402 29.79765-19.52288 1.05102-36.46518-7.69377-46.6461-24.07737-1.76107-2.83315-3.81151-5.15208-4.55761-5.15208-2.36788 0-3.80179 25.833-1.63798 29.50619 1.54944 2.63099 10.46706 6.55049 20.31003 8.92732 11.95494 2.88712 38.04161 3.61823 47.6751 1.33659 35.22455-8.34341 50.07106-43.36379 32.25417-76.07898-5.75397-10.56519-18.43666-22.36786-37.11303-34.53657-14.44376-9.41113-24.2878-16.97339-29.00305-22.2815-15.00415-16.88703-10.91084-42.93593 8.12292-51.70231 15.73514-7.24725 39.37942-1.98036 54.54769 12.14909 4.03285 3.7566 7.27317 6.04412 7.81412 5.51615 1.24279-1.21393 3.32778-12.72415 3.32778-18.37573 0-3.98231-.37467-4.7301-2.9693-5.93323-11.03393-5.11969-48.01091-7.2237-62.86065-3.57702m-639.113753-.32011c-13.231504.15603-24.056297.55445-24.056297.88515 0 .33071.937385 1.97834 2.083437 3.6613 3.370044 4.9488 6.530339 16.95622 7.650443 29.06471.574108 6.20685 1.050909 44.5725 1.06064 85.257l.017299 73.97184 5.135614-.56426c2.825128-.3101 16.812378.33659 31.083979 1.43763 45.469103 3.50625 73.539829 1.88413 95.144005-5.49539 41.093561-14.03875 62.260939-48.90698 59.601232-98.18097-2.79053-51.67823-31.400765-82.16879-83.837005-89.34223-10.267984-1.40525-24.650947-1.51123-93.883347-.69478m232 0c-13.230423.15603-24.056297.55445-24.056297.88515 0 .33071.937385 1.97834 2.083437 3.6613 3.370044 4.9488 6.530339 16.95622 7.650443 29.06471.574108 6.20685 1.050909 44.5725 1.06064 85.257l.017299 73.97184 5.135614-.56426c2.824047-.3101 16.812378.33659 31.083979 1.43763 45.469103 3.50625 73.539829 1.88413 95.144005-5.49539 41.093561-14.03875 62.260939-48.90698 59.601232-98.18097-2.79053-51.67823-31.400765-82.16879-83.837005-89.34223-10.267984-1.40525-24.650947-1.51123-93.883347-.69478m-205.350856 11.09188c-7.964909 1-12.637943 3.02354-15.2133 6.58728-1.766978 2.44608-1.921521 8.04414-2.196024 79.30225l-.296117 76.67087 2.897411 2.06765c6.117958 4.36472 26.60085 7.64513 53.350839 8.54219 14.372499.48235 18.285788.27353 27.558368-1.46961 40.02988-7.52846 58.342686-33.48738 58.193382-82.49148-.150056-48.77175-18.723315-76.89146-57.682202-87.33071-7.173821-1.92158-10.973634-2.19413-34.01351-2.43923-14.265508-.15196-28.935205.10098-32.598847.56079m233 0c-7.964909 1-12.637943 3.02354-15.2133 6.58728-1.766978 2.44608-1.921521 8.04414-2.196024 79.30225l-.296117 76.67087 2.897411 2.06765c6.117958 4.36472 26.60085 7.64513 53.350839 8.54219 14.372499.48235 18.285788.27353 27.558368-1.46961 40.02988-7.52846 58.342686-33.48738 58.193382-82.49148-.150056-48.77175-18.723315-76.89146-57.682202-87.33071-7.173821-1.92158-10.973634-2.19413-34.01351-2.43923-14.265508-.15196-28.935205.10098-32.598847.56079"/><g transform="translate(660 2239)"><path d="m-0 .62517588c0 .34394472 1.93738667 2.50854271 4.30445333 4.81130653 2.36706667 2.30178392 4.838 5.96072869 5.49072 8.13120599.81999997 2.73 1.09333337 30.1818845.88778667 89.0581656-.27552 79.143543-.4307733 85.295352-2.20962667 87.728442-1.05178666 1.439473-1.91333333 2.852488-1.91333333 3.141558 0 .288091 8.8997333.524247 19.7773067.524247h19.7773066l-2.88312-3.071006c-1.5853333-1.688366-3.9666133-4.884799-5.29064-7.104271l-2.40752-4.033266v-86.7642213c0-80.9828141.12792-86.93864323 1.9133334-89.38153268 1.0517866-1.43947236 1.9133333-2.85248744 1.9133333-3.14155779 0-.28809045-8.856-.52424623-19.68-.52424623s-19.68.28123116-19.68.62517588"/><path d="m117.090533.85447236c-2.979333.74766332-3.766533 1.84613066-5.498373 7.67751256-2.04016 6.86517588-10.52552 16.90522618-43.7234933 51.73183418-17.4670934 18.3241206-31.7657067 34.1024623-31.7733636 35.0627638-.0174898 1.9940955 65.1604839 77.5806031 72.8050699 84.4320601 12.7264 11.40603 20.69352 14.43392 39.519627 15.01892 16.78704.521306 18.360347-.410578 8.496293-5.030804-8.179226-3.829447-20.81816-13.691156-28.642053-22.347588-20.051733-22.183945-69.3348267-80.4840454-68.87344-81.4747238 1.0649067-2.2861055 52.494213-57.1565578 60.157387-64.1814573 4.297893-3.9401758 11.259146-9.671608 15.46848-12.73673362 8.421946-6.13123115 9.404853-7.07095477 8.61-8.22429648-.64288-.93286432-22.7796-.87211055-26.546134.07251256"/></g><path d="m87.038835.86020957c-8.223301.3783-31.1705826.741-50.9951457.806325-19.8234951.065325-36.0436893.361725-36.0436893.658125s1.21640777 2.161575 2.70407767 4.14375 3.76990291 6.67582503 5.07281553 10.42957503c2.3676699 6.82305 2.3687379 6.845475 2.3687379 88.7250004 0 76.086075-.1324272 82.13595-1.86893207 85.2189-1.02737864 1.8252-1.86893204 3.470025-1.86893204 3.65625 0 .18525 22.11747571.33735 49.14864081.33735h49.1497092l1.017766-2.19375c1.111748-2.3946 4.175729-24.87225 3.47835-25.5099-.237087-.21645-4.652039 2.210325-9.8113592 5.392725-11.1046602 6.85035-18.4864078 9.407775-31.3115534 10.8498-15.9382524 1.79205-27.0439806-.60255-31.486699-6.788925-2.8685437-3.9936-3.4975729-75.274875-.6824272-77.3886754 1.4107767-1.059825 5.2703883-1.330875 16.8673786-1.1856 16.4818447.205725 30.2884466 2.7017254 41.9815534 7.5884254 3.2754369 1.3689 6.1311648 2.327325 6.3479608 2.130375.344952-.3159-1.7535919-24.2755504-2.1636889-24.6957754-.0875729-.0897-2.8023301.4641-6.0318447 1.231425-12.4000971 2.94645-48.5676699 4.415775-55.3737864 2.249325l-3.3630097-1.07055v-34.982025-34.982025l2.8899029-1.728675c4.2141748-2.52135 30.1357281-2.4726 39.2390291.0741 9.3307767 2.610075 17.5807767 6.69435 23.7503887 11.757525 2.999903 2.46285 5.784077 4.4772 6.187767 4.4772.728349 0-.071554-18.11745-1.151262-26.08125003-.326797-2.4141-1.091457-4.07355-1.830486-3.975075-.698447.0936-7.9979611.478725-16.221262.85605" transform="translate(1020 2239)"/><path d="m80.4313164 2.60026277c2.3946328-3.37319705 4.9798587-3.46632513 7.4868926-.26860099 1.0575481 1.34790641 11.4844633 28.14624632 23.172226 59.55295562 36.849 99.0186746 46.133333 120.4851876 57.426226 132.7731926l3.882237 4.223113h-16.775135-16.775136l-1.729022-4.166256c-.951012-2.290951-7.189763-19.449064-13.863458-38.127616l-12.134435-33.96136-4.320113-.594059c-5.624944-.773453-44.7073052-.755808-52.9321357.023527l-6.3687458.602882-10.4425537 29.534345c-11.4355932 32.342892-12.475548 35.736675-12.5058474 40.806763-.0342091 5.808252-.4202825 5.975882-13.0825141 5.66905l-11.4698023-.277424 3.06610734-3.431034c8.31181926-9.300064 11.29875706-16.230754 36.96433336-85.775862 33.9852147-92.088966 38.4235932-103.79957682 40.4008757-106.58361623zm-15.1907684 69.95977343c-7.3490791 20.5646404-13.0942429 37.6580538-12.7668135 37.9864528.9216892.925399 45.3641186 1.279286 49.9481295.398981l4.065989-.781296-13.3512993-37.4865024c-7.3432147-20.6175763-13.6171526-37.4904236-13.9416497-37.4963065-.3254746-.0049004-6.6042995 16.815011-13.954356 37.3786711z" transform="translate(291 2235)"/><path d="m-0 .50459596c0 .27728283 1.30701802 2.81593939 2.9047027 5.63971717 6.05097298 10.69841417 6.02936937 10.33294947 5.69745946 98.00821187-.26218919 69.096334-.50572072 80.235657-1.853 84.703536l-1.55153153 5.143939h49.89254057 49.8925408l.553838-3.184343c1.399324-8.056879 3.034324-26.358526 2.389162-26.756324-.394757-.24299-3.07655 1.570616-5.959649 4.030889-6.5861531 5.623061-16.6917297 10.615132-26.8444414 13.262546-9.5723603 2.495545-35.7824414 3.233333-39.5021892 1.11207-4.7577027-2.71306-4.6683423-1.372697-4.9865045-74.68706-.3053964-70.3298992.4134144-93.1964245 3.217955-102.42220224.8130811-2.67582829 1.4837748-4.97541414 1.4896666-5.11062626.0058919-.13521213-7.9432522-.2449495-17.6648738-.2449495-9.72162165 0-17.6756757.22731313-17.6756757.50459596" transform="translate(7 2239)"/></g></svg>